<?xml version="1.0" standalone="no"?>
<!DOCTYPE svg PUBLIC "-//W3C//DTD SVG 1.1//EN" "http://www.w3.org/Graphics/SVG/1.1/DTD/svg11.dtd" >
<svg xmlns="http://www.w3.org/2000/svg">
<metadata>
This is a custom SVG webfont generated by Font Squirrel.
Copyright   : Copyright c 2011 by Luke Lisi All rights reserved
Designer    : Luke Lisi
Foundry     : Luke Lisi
</metadata>
<defs>
<font id="HomesteadInline" horiz-adv-x="1273" >
<font-face units-per-em="2048" ascent="1536" descent="-512" />
<missing-glyph horiz-adv-x="702" />
<glyph unicode=" "  horiz-adv-x="702" />
<glyph unicode="&#x09;" horiz-adv-x="702" />
<glyph unicode="&#xa0;" horiz-adv-x="702" />
<glyph unicode="!" horiz-adv-x="415" d="M0 0v287h287v-287h-287zM0 430v1004h287v-1004h-287zM129 129h29v29h-29v-29zM129 559h29v746h-29v-746z" />
<glyph unicode="&#x22;" horiz-adv-x="1003" d="M0 1161l143 430h303l-143 -430h-303zM178 1290h31l57 172h-30zM444 1161l144 430h303l-143 -430h-304zM623 1290h30l58 172h-31z" />
<glyph unicode="#" horiz-adv-x="1560" d="M0 287v286h287v287h-287v287h287v287h286v-287h287v287h287v-287h287v-287h-287v-287h287v-286h-287v-287h-287v287h-287v-287h-286v287h-287zM129 416h287v-287h28v287h545v-287h29v287h287v28h-287v545h287v29h-287v287h-29v-287h-545v287h-28v-287h-287v-29h287v-545 h-287v-28zM444 444v545h545v-545h-545zM573 573h287v287h-287v-287z" />
<glyph unicode="$" horiz-adv-x="1206" d="M-14 1032q0 156 109.5 270.5t277.5 139.5v135h286v-156q55 -16 115 -47v60h287v-430h-289q-76 86 -143.5 121.5t-177.5 35.5q-80 0 -129.5 -39t-49.5 -90q0 -129 287 -176q135 -20 237.5 -65.5t157 -96.5t87 -113.5t41 -106.5t8.5 -87q0 -164 -122 -276.5t-309 -122.5 v-131h-286v170q-45 14 -86 36v-63h-287v430h287q80 -86 151.5 -122t184.5 -36q78 0 129 33t51 82q0 141 -287 186q-131 20 -231.5 61.5t-155.5 89.5t-89 106.5t-44 105.5t-10 96zM115 1032q0 -264 422 -332q227 -35 311 -125t84 -188q0 -106 -87 -175t-220 -69 q-131 0 -220.5 39t-171.5 119h-104v-172h29v143h65q125 -125 279 -149v-137h28v133q57 -4 95 -4q152 0 247 84q88 76 89 188q0 47 -15.5 91t-56.5 96.5t-130 93.5t-218 61q-397 61 -398 303q0 102 85 180t225 78q125 0 212 -39t164 -118h103v172h-29v-144h-63 q-104 111 -248 144q-41 8 -62 10v133h-28v-131q-16 2 -49 2q-143 0 -240.5 -83t-97.5 -204z" />
<glyph unicode="%" horiz-adv-x="1667" d="M0 1141q0 131 92 222t221 91q131 0 223.5 -91t92.5 -222q0 -129 -92.5 -221.5t-223.5 -92.5q-129 0 -221 92.5t-92 221.5zM94 1141q0 -90 64.5 -155.5t154.5 -65.5q92 0 157 65.5t65 155.5q0 92 -64.5 156.5t-157.5 64.5q-90 0 -154.5 -64.5t-64.5 -156.5zM121 0 l956 1434h344l-954 -1434h-346zM123 1141q0 80 56.5 136t133.5 56q80 0 136.5 -56t56.5 -136t-56.5 -136.5t-136.5 -56.5q-78 0 -134 56.5t-56 136.5zM215 1141q0 -41 28.5 -70t69.5 -29t71 29t30 70t-30 69.5t-71 28.5t-69.5 -28.5t-28.5 -69.5zM362 129h35l785 1176h-35z M920 293q0 129 92 221t223 92q129 0 221 -92t92 -221q0 -131 -92 -223.5t-221 -92.5q-131 0 -223 92.5t-92 223.5zM1014 293q0 -92 64.5 -156.5t156.5 -64.5q90 0 155.5 64.5t65.5 156.5q0 90 -65.5 155.5t-155.5 65.5q-92 0 -156.5 -65.5t-64.5 -155.5zM1042 293 q0 80 56.5 136t136.5 56t136 -56t56 -136t-56 -136.5t-136 -56.5t-136.5 56.5t-56.5 136.5zM1135 293q0 -41 29.5 -70.5t70.5 -29.5t69.5 29.5t28.5 70.5t-28.5 69.5t-69.5 28.5t-70.5 -28.5t-29.5 -69.5z" />
<glyph unicode="&#x26;" d="M0 430q0 166 111 287q-111 121 -111 287q0 178 126 304t304 126h143v-287h-143q-59 0 -101 -42t-42 -101.5t42 -101.5t101 -42h287v144h287v-144h143v-287h-143v-143q0 -59 41.5 -101t101.5 -42v-287q-166 0 -287 111q-121 -111 -287 -111h-143q-178 0 -304 126t-126 304 zM129 430q0 -125 88 -213t213 -88h145q98 0 177 58.5t108 150.5q37 -121 158 -180v32q-139 76 -144 232v280h144v29h-144v143h-28v-143h-416q-113 0 -192.5 80t-79.5 192.5t79.5 192.5t192.5 80v29q-125 0 -213 -88.5t-88 -212.5q0 -98 58.5 -178.5t150.5 -108.5 q-92 -29 -150.5 -109t-58.5 -178zM158 430q0 113 79.5 192.5t192.5 79.5h416v-280q-4 -109 -83 -186.5t-190 -77.5h-143q-113 0 -192.5 79.5t-79.5 192.5zM287 430q0 -59 42 -101t101 -42h143q59 0 101.5 42t42.5 101v143h-287q-59 0 -101 -42t-42 -101z" />
<glyph unicode="'" horiz-adv-x="561" d="M0 1161l143 430h303l-143 -430h-303zM178 1290h31l57 172h-30z" />
<glyph unicode="(" horiz-adv-x="544" d="M0 158v1003q0 178 126 304t304 126v-286q-59 0 -101 -42t-42 -102v-1003q0 -59 42 -101.5t101 -42.5v-286q-178 0 -304 126t-126 304zM129 158q0 -90 47 -163t125 -110v33q-66 35 -104.5 98.5t-38.5 141.5v1003q0 78 39 141.5t104 98.5v33q-78 -37 -125 -110t-47 -163 v-1003z" />
<glyph unicode=")" horiz-adv-x="544" d="M0 14q59 0 101 42t42 102v1003q0 59 -42 101.5t-101 42.5v286q178 0 304 -126t126 -304v-1003q0 -178 -126 -304t-304 -126v286zM129 -82v-33q78 37 125 110t47 163v1003q0 90 -47 163t-125 110v-33q66 -35 104.5 -98.5t38.5 -141.5v-1003q0 -78 -38.5 -141.5 t-104.5 -98.5z" />
<glyph unicode="*" horiz-adv-x="690" d="M0 1065l141 82l-141 82l72 123l141 -80v162h143v-162l140 80l71 -123l-139 -82l139 -82l-71 -123l-140 80v-162h-143v162l-141 -80zM78 1044l14 -24l178 102v-204h29v204l176 -102l14 24l-176 103l176 102l-14 25l-176 -103v205h-29v-205l-178 103l-14 -25l178 -102z" />
<glyph unicode="+" horiz-adv-x="989" d="M0 573v287h287v287h286v-287h287v-287h-287v-286h-286v286h-287zM129 702h287v-286h28v286h287v29h-287v287h-28v-287h-287v-29z" />
<glyph unicode="," horiz-adv-x="561" d="M0 -143l143 430h303l-143 -430h-303zM178 -14h31l57 172h-30z" />
<glyph unicode="-" horiz-adv-x="989" d="M0 573v287h860v-287h-860zM129 702h602v29h-602v-29z" />
<glyph unicode="." horiz-adv-x="458" d="M0 172q0 70 51 121t121 51t121 -51t51 -121t-51 -121t-121 -51t-121 51t-51 121zM150 172q0 -23 22 -22q20 0 21 22q0 20 -21 21q-22 -1 -22 -21z" />
<glyph unicode="/" horiz-adv-x="989" d="M0 -129l573 1720h304l-574 -1720h-303zM178 0h31l487 1462h-30z" />
<glyph unicode="0" horiz-adv-x="1118" d="M0 430v574q0 178 126 304t304 126h143q178 0 304.5 -126t126.5 -304v-574q0 -178 -126 -304t-305 -126h-143q-178 0 -304 126t-126 304zM129 430q0 -125 88 -213t213 -88h143q125 0 213 88t88 213v574q0 125 -88 213t-213 88h-143q-125 0 -213 -88.5t-88 -212.5v-574z M158 430v574q0 113 79.5 192.5t192.5 79.5h143q113 0 193 -80t80 -192v-574q0 -113 -80 -192.5t-193 -79.5h-143q-113 0 -192.5 79.5t-79.5 192.5zM287 430q0 -59 42 -101t101 -42h143q59 0 101.5 42t42.5 101v574q0 59 -42 101t-102 42h-143q-59 0 -101 -42t-42 -101v-574z " />
<glyph unicode="1" horiz-adv-x="702" d="M0 0v287h143v860h-143v287h430v-1147h143v-287h-573zM129 129h315v29h-143v1147h-172v-29h143v-1118h-143v-29z" />
<glyph unicode="2" horiz-adv-x="1132" d="M0 0v289l604 561q53 49 79 81t30 43t4 30q0 59 -42 101t-102 42h-143q-59 0 -101 -42t-42 -101h-287q0 178 126 304t304 126h143q178 0 304.5 -126t126.5 -304q0 -104 -47.5 -182.5t-155.5 -180.5l-383 -354h299v143h287v-430h-1004zM129 129h745v172h-28v-143h-688v63 l555 514q94 88 127.5 143.5t33.5 125.5q0 125 -88 213t-213 88h-143q-90 0 -162.5 -47.5t-109.5 -124.5h32q35 66 98.5 104.5t141.5 38.5h143q113 0 193 -80t80 -192q0 -63 -32 -114.5t-122 -133.5l-563 -523v-104z" />
<glyph unicode="3" horiz-adv-x="1118" d="M0 430h287q0 -59 42 -101t101 -42h143q59 0 101.5 42t42.5 101t-42 101t-102 42h-143v287h143q59 0 101.5 42t42.5 101.5t-42 101.5t-102 42h-143q-59 0 -101 -42t-42 -101h-287q0 178 126 304t304 126h143q178 0 304.5 -126t126.5 -304q0 -166 -111 -287 q111 -121 111 -287q0 -178 -126 -304t-305 -126h-143q-178 0 -304 126t-126 304zM158 301q37 -78 109.5 -125t162.5 -47h143q125 0 213 88t88 213q0 117 -77 201q0 4 -4 4q-27 27 -59 46t-50 26l-18 6q72 25 118 75l13 15q78 84 77 201q0 125 -88 213t-213 88h-143 q-90 0 -162.5 -47.5t-109.5 -124.5h32q35 66 98.5 104.5t141.5 38.5h143q113 0 193 -80t80 -192.5t-80 -192.5t-193 -80h-14v-29h14q113 0 193 -79.5t80 -192.5t-80 -192.5t-193 -79.5h-143q-78 0 -141.5 39t-98.5 104h-32z" />
<glyph unicode="4" horiz-adv-x="1132" d="M0 430v289l373 715h323l-374 -717h251v287h287v-287h144v-287h-144v-143h144v-287h-574v287h143v143h-573zM129 559h573v-401h-143v-29h315v29h-143v401h143v29h-143v286h-29v-286h-544v92l325 625h-32l-322 -619v-127z" />
<glyph unicode="5" horiz-adv-x="1077" d="M0 430h287q0 -59 42 -101t101 -42h72q72 0 122 51t50 120.5t-50.5 121t-121.5 51.5h-502v803h932v-430h-287v143h-358v-229h215q188 0 323.5 -135.5t135.5 -323.5q0 -190 -135.5 -324.5t-323.5 -134.5h-72q-178 0 -304 126t-126 304zM129 760h373q125 0 213 -88t88 -213 t-88 -213t-213 -88h-72q-78 0 -141.5 39t-98.5 104h-32q37 -78 109.5 -125t162.5 -47h72q137 0 233 96.5t96 233.5t-96 233t-233 96h-344v488h616v-143h29v172h-674v-545z" />
<glyph unicode="6" horiz-adv-x="1118" d="M0 430v574q0 178 126 304t304 126h143q178 0 304.5 -126t126.5 -304h-287q0 59 -42 101t-102 42h-143q-59 0 -101 -42t-42 -101v-168q68 25 143 24h143q178 0 304.5 -126t126.5 -304t-126 -304t-305 -126h-143q-178 0 -304 126t-126 304zM129 430q0 -125 88 -213t213 -88 h143q125 0 213 88t88 213t-88 213t-213 88h-143q-47 0 -100 -16l-35 -15q-84 -35 -137 -131v435q0 113 79.5 192.5t192.5 79.5h143q78 0 141.5 -39t98.5 -104h33q-37 78 -110.5 125t-162.5 47h-143q-125 0 -213 -88.5t-88 -212.5v-574zM158 430q0 113 79.5 192.5t192.5 79.5 h143q113 0 193 -79.5t80 -192.5t-80 -192.5t-193 -79.5h-143q-113 0 -192.5 79.5t-79.5 192.5zM287 430q0 -59 42 -101t101 -42h143q59 0 101.5 42t42.5 101t-42 101t-102 42h-143q-59 0 -101 -42t-42 -101z" />
<glyph unicode="7" horiz-adv-x="1118" d="M0 1004v430h1034l-534 -1434h-307l430 1147h-336v-143h-287zM129 1133h29v143h649l-428 -1147h31l440 1176h-721v-172z" />
<glyph unicode="8" horiz-adv-x="1118" d="M0 430q0 166 111 287q-111 121 -111 287q0 178 126 304t304 126h143q178 0 304.5 -126t126.5 -304q0 -166 -111 -287q111 -121 111 -287q0 -178 -126 -304t-305 -126h-143q-178 0 -304 126t-126 304zM129 430q0 -125 88 -213t213 -88h143q125 0 213 88t88 213 q0 117 -77 201l-4 6q-27 27 -59 46t-50 26l-18 6q74 25 120 76l11 12q78 84 77 201q0 125 -88 213t-213 88h-143q-125 0 -213 -88.5t-88 -212.5q0 -117 78 -201l10 -12q20 -23 51 -42.5t51 -27.5l19 -6q-68 -16 -131 -84q-78 -84 -78 -201zM158 430q0 113 79.5 192.5 t192.5 79.5h143q113 0 193 -79.5t80 -192.5t-80 -192.5t-193 -79.5h-143q-113 0 -192.5 79.5t-79.5 192.5zM158 1003.5q0 112.5 79.5 192.5t192.5 80h143q113 0 193 -80t80 -192.5t-80 -192.5t-193 -80h-143q-113 0 -192.5 80t-79.5 192.5zM287 430q0 -59 42 -101t101 -42 h143q59 0 101.5 42t42.5 101t-42 101t-102 42h-143q-59 0 -101 -42t-42 -101zM287 1003.5q0 -59.5 42 -101.5t101 -42h143q59 0 101.5 42t42.5 101.5t-42 101.5t-102 42h-143q-59 0 -101 -42t-42 -101.5z" />
<glyph unicode="9" horiz-adv-x="1118" d="M0 430h287q0 -59 42 -101t101 -42h143q59 0 101.5 42t42.5 101v168q-68 -25 -144 -25h-143q-178 0 -304 126t-126 304.5t126 304.5t304 126h143q178 0 304.5 -126t126.5 -304v-574q0 -178 -126 -304t-305 -126h-143q-178 0 -304 126t-126 304zM129 1003.5 q0 -124.5 88 -213t213 -88.5h143q47 0 101 17l10 4q61 25 101 63.5t51 65.5l10 27v-449q0 -113 -80 -192.5t-193 -79.5h-143q-78 0 -141.5 39t-98.5 104h-32q37 -78 109.5 -125t162.5 -47h143q125 0 213 88t88 213v574q0 125 -88 213t-213 88h-143q-125 0 -213 -88.5 t-88 -213zM158 1003.5q0 112.5 79.5 192.5t192.5 80h143q113 0 193 -80t80 -192.5t-80 -192.5t-193 -80h-143q-113 0 -192.5 80t-79.5 192.5zM287 1003.5q0 -59.5 42 -101.5t101 -42h143q59 0 101.5 42t42.5 101.5t-42 101.5t-102 42h-143q-59 0 -101 -42t-42 -101.5z" />
<glyph unicode=":" horiz-adv-x="458" d="M0 430q0 70 51 121t121 51t121 -51t51 -121t-51 -121t-121 -51t-121 51t-51 121zM0 1003.5q0 69.5 51 121t121 51.5t121 -51.5t51 -121t-51 -121t-121 -51.5t-121 51.5t-51 121zM150 430q0 -23 22 -22q20 0 21 22q0 20 -21 21q-22 -1 -22 -21zM150 1004q0 -23 22 -23 q20 0 21 23q0 20 -21 20q-22 0 -22 -20z" />
<glyph unicode=";" horiz-adv-x="561" d="M0 -143l143 430h303l-143 -430h-303zM100 716.5q0 69.5 50.5 121t122 51.5t121.5 -51.5t50 -121t-50 -120.5t-121.5 -51t-122 51t-50.5 120.5zM178 -14h31l57 172h-30zM250 717q0 -23 22 -23q20 0 21 23q0 20 -21 20q-22 0 -22 -20z" />
<glyph unicode="&#x3c;" horiz-adv-x="989" d="M0 541v321l860 430v-321l-541 -269l541 -270v-321zM129 621l602 -302v33l-573 287v125l573 287v32l-602 -301v-161z" />
<glyph unicode="=" d="M0 287v286h1147v-286h-1147zM0 717v287h1147v-287h-1147zM129 416h889v28h-889v-28zM129 846h889v28h-889v-28z" />
<glyph unicode="&#x3e;" horiz-adv-x="989" d="M0 111v321l539 270l-539 269v321l860 -430v-321zM129 319l602 302v161l-602 301v-32l573 -287v-125l-573 -287v-33z" />
<glyph unicode="?" horiz-adv-x="1118" d="M0 1004q0 178 126 304t304 126h143q178 0 304.5 -126t126.5 -304v-144q0 -139 -99.5 -238.5t-238.5 -99.5q-20 0 -35 -14t-15 -35v-43h-286v43q0 139 98 237.5t238 98.5q23 0 37 15.5t14 35.5v144q0 59 -42 101t-102 42h-143q-59 0 -101 -42t-42 -101h-287zM158 1133h32 q35 66 98.5 104.5t141.5 38.5h143q113 0 193 -80t80 -192v-144q0 -74 -52.5 -127t-127.5 -53q-61 0 -112.5 -33t-76.5 -88h33q51 92 156 92q86 0 147 61.5t61 147.5v144q0 125 -88 213t-213 88h-143q-90 0 -162.5 -47t-109.5 -125zM330 0v287h286v-287h-286zM459 129h28v29 h-28v-29z" />
<glyph unicode="@" horiz-adv-x="1538" d="M0 717q0 297 210 507t507 210t507 -210t210 -507q0 -131 -92.5 -222.5t-221.5 -91.5q-119 0 -207 78q-88 -78 -206 -78q-131 0 -222.5 91.5t-91.5 222.5t91 222t223 91q129 0 221 -91t92 -222q0 -41 29.5 -70t70.5 -29t70 29t29 70q0 207 -147.5 354.5t-354.5 147.5 t-354.5 -147.5t-147.5 -354.5t147.5 -354.5t354.5 -147.5h416v-215h-416q-297 0 -507 210t-210 507zM92 717q0 -258 183.5 -441.5t441.5 -183.5h321v29h-321q-246 0 -421 175t-175 421t175 420t421 174t420 -174t174 -420q0 -80 -56.5 -136.5t-136.5 -56.5q-78 0 -134 56.5 t-56 136.5q0 90 -65.5 155.5t-155.5 65.5q-92 0 -157 -65.5t-65 -155.5q0 -92 64.5 -156.5t157.5 -64.5q70 0 126 39.5t80 103.5q23 -63 79.5 -103t125.5 -40q92 0 156.5 64.5t64.5 156.5q0 258 -182 440t-440 182t-441.5 -182t-183.5 -440zM514 717q0 80 56.5 136t136 56 t136 -56t56.5 -136t-56.5 -136.5t-136 -56.5t-136 56.5t-56.5 136.5zM608 717q0 -41 29 -70t70 -29t69.5 29t28.5 70t-28.5 69.5t-69.5 28.5t-70 -28.5t-29 -69.5z" />
<glyph unicode="A" horiz-adv-x="1531" d="M0 0v287h139l344 1147h439l344 -1147h139v-287h-574v287h136l-43 143h-443l-43 -143h135v-287h-573zM129 129h315v29h-180l121 401h635l121 -401h-180v-29h315v29h-107l-344 1147h-247l-345 -1147h-104v-29zM393 588l207 688h205l207 -688h-619zM567 717h271l-129 430 h-13z" />
<glyph unicode="B" d="M0 0v287h143v860h-143v287h717q172 0 294 -122t122 -294q0 -147 -97 -266q125 -129 125 -308q0 -184 -130 -314t-314 -130h-717zM129 129h588q131 0 223 92t92 223q0 127 -88 220l-8 8q-27 25 -57.5 43t-49.5 24l-18 6q76 29 115 76l12 15q66 82 66 182q0 119 -84 203 t-203 84h-588v-29h143v-1118h-143v-29zM301 158v573h416q119 0 203 -84t84 -202.5t-84 -202.5t-203 -84h-416zM301 760v516h416q106 0 182 -76t76 -182.5t-76 -182t-182 -75.5h-416zM430 287h287q66 0 111.5 46t45.5 111q0 63 -46 110.5t-111 47.5h-287v-315zM430 889h287 q53 0 91 38t38 91t-38 91t-91 38h-287v-258z" />
<glyph unicode="C" horiz-adv-x="1261" d="M0 430v574q0 178 126 304t304 126h287q178 0 304 -126t126 -304v-72h-287v72q0 59 -42 101t-101 42h-287q-59 0 -101 -42t-42 -101v-574q0 -59 42 -101t101 -42h287q59 0 101 42t42 101v72h287v-72q0 -178 -126 -304t-304 -126h-287q-178 0 -304 126t-126 304zM129 430 q0 -125 88 -213t213 -88h287q109 0 191.5 69.5t103.5 174.5h-29q-20 -92 -94 -153.5t-172 -61.5h-287q-113 0 -192.5 79.5t-79.5 192.5v574q0 113 79.5 192.5t192.5 79.5h287q98 0 172 -61.5t94 -153.5h29q-20 104 -103.5 174t-191.5 70h-287q-125 0 -213 -88.5t-88 -212.5 v-574z" />
<glyph unicode="D" horiz-adv-x="1261" d="M0 0v287h143v860h-143v287h573q238 0 406 -168t168 -406v-287q0 -238 -168 -405.5t-406 -167.5h-573zM129 129h444q184 0 314.5 130t130.5 314v287q0 184 -130 314.5t-315 130.5h-444v-29h143v-1118h-143v-29zM301 158v1118h272q172 0 294 -122t122 -294v-287 q0 -172 -122 -293.5t-294 -121.5h-272zM430 287h143q119 0 203 84t84 202v287q0 119 -84 203t-203 84h-143v-860z" />
<glyph unicode="E" horiz-adv-x="1132" d="M0 0v287h143v860h-143v287h1004v-430h-287v143h-287v-287h287v-287h-287v-286h287v143h287v-430h-1004zM129 129h745v172h-28v-143h-545v544h287v29h-287v545h545v-143h28v172h-745v-29h143v-1118h-143v-29z" />
<glyph unicode="F" horiz-adv-x="1132" d="M0 0v287h143v860h-143v287h1004v-430h-287v143h-287v-287h287v-287h-287v-286h143v-287h-573zM129 129h315v29h-143v544h287v29h-287v545h545v-143h28v172h-745v-29h143v-1118h-143v-29z" />
<glyph unicode="G" horiz-adv-x="1261" d="M0 430v574q0 178 126 304t304 126h287q178 0 304 -126t126 -304v-72h-287v72q0 59 -42 101t-101 42h-287q-59 0 -101 -42t-42 -101v-574q0 -59 42 -101t101 -42h287q59 0 101 42t42 101v57h-287v287h574v-344q0 -178 -126 -304t-304 -126h-287q-178 0 -304 126t-126 304z M129 430q0 -125 88 -213t213 -88h287q125 0 213 88t88 213v215h-316v-29h287v-186q0 -113 -80 -192.5t-192 -79.5h-287q-113 0 -192.5 79.5t-79.5 192.5v574q0 113 79.5 192.5t192.5 79.5h287q98 0 172 -61.5t94 -153.5h29q-20 104 -103.5 174t-191.5 70h-287 q-125 0 -213 -88.5t-88 -212.5v-574z" />
<glyph unicode="H" horiz-adv-x="1402" d="M0 0v287h143v860h-143v287h573v-287h-143v-287h416v287h-144v287h574v-287h-143v-860h143v-287h-574v287h144v286h-416v-286h143v-287h-573zM129 129h315v29h-143v544h674v-544h-144v-29h316v29h-143v1118h143v29h-316v-29h144v-545h-674v545h143v29h-315v-29h143v-1118 h-143v-29z" />
<glyph unicode="I" horiz-adv-x="702" d="M0 0v287h143v860h-143v287h573v-287h-143v-860h143v-287h-573zM129 129h315v29h-143v1118h143v29h-315v-29h143v-1118h-143v-29z" />
<glyph unicode="J" horiz-adv-x="1132" d="M0 430v143h287v-143q0 -59 42 -101t101 -42t101 42t42 101v717h-143v287h574v-287h-144v-717q0 -178 -126 -304t-304 -126t-304 126t-126 304zM129 430q0 -125 88 -213t213 -88t213 88t88 213v846h143v29h-315v-29h143v-846q0 -113 -79.5 -192.5t-192.5 -79.5 t-192.5 79.5t-79.5 192.5v14h-29v-14z" />
<glyph unicode="K" horiz-adv-x="1431" d="M0 0v287h143v860h-143v287h559v-287h-129v-350l361 350h-74v287h588v-287h-103l-346 -336l313 -524h136v-287h-574v287h105l-191 319l-215 -209v-110h143v-287h-573zM129 129h315v29h-143v295l373 360l389 -655h-203v-29h316v29h-80l-402 676l457 442h25v29h-330v-29h264 l-809 -782v782h129v29h-301v-29h143v-1118h-143v-29z" />
<glyph unicode="L" horiz-adv-x="1132" d="M0 0v287h143v860h-143v287h573v-287h-143v-860h287v143h287v-430h-1004zM129 129h745v172h-28v-143h-545v1118h143v29h-315v-29h143v-1118h-143v-29z" />
<glyph unicode="M" horiz-adv-x="1560" d="M0 0v287h143v860h-143v287h434l283 -449l282 449h435v-287h-144v-860h144v-287h-574v287h144v616l-287 -454l-287 454v-616h143v-287h-573zM129 129h315v29h-143v1118h45l371 -586l370 586h46v-1118h-144v-29h316v29h-144v1118h144v29h-234l-354 -562l-355 562h-233v-29 h143v-1118h-143v-29z" />
<glyph unicode="N" horiz-adv-x="1548" d="M0 0v287h143v860h-143v287h430l559 -893v606h-143v287h573v-287h-143v-1147h-287l-559 893v-606h143v-287h-573zM129 129h315v29h-143v1118h41l719 -1147h86v1147h143v29h-315v-29h143v-1118h-41l-719 1147h-229v-29h143v-1118h-143v-29z" />
<glyph unicode="O" d="M0 430v574q0 178 126 304t304 126h287q178 0 304 -126t126 -304v-574q0 -178 -126 -304t-304 -126h-287q-178 0 -304 126t-126 304zM129 430q0 -125 88 -213t213 -88h287q125 0 213 88t88 213v574q0 125 -88 213t-213 88h-287q-125 0 -213 -88.5t-88 -212.5v-574z M158 430v574q0 113 79.5 192.5t192.5 79.5h287q113 0 192.5 -80t79.5 -192v-574q0 -113 -80 -192.5t-192 -79.5h-287q-113 0 -192.5 79.5t-79.5 192.5zM287 430q0 -59 42 -101t101 -42h287q59 0 101 42t42 101v574q0 59 -42 101t-101 42h-287q-59 0 -101 -42t-42 -101v-574z " />
<glyph unicode="P" horiz-adv-x="1247" d="M0 0v287h143v860h-143v287h674q190 0 324.5 -134.5t134.5 -325t-134.5 -324.5t-324.5 -134h-244v-229h143v-287h-573zM129 129h315v29h-143v487h373q137 0 233.5 96.5t96.5 233.5t-96.5 233.5t-233.5 96.5h-545v-29h143v-1118h-143v-29zM301 674v602h373q125 0 213 -88 t88 -213t-88 -213t-213 -88h-373zM430 803h244q72 0 122 51t50 120.5t-50.5 121t-121.5 51.5h-244v-344z" />
<glyph unicode="Q" horiz-adv-x="1261" d="M0 430v574q0 178 126 304t304 126h287q178 0 304 -126t126 -304v-574q0 -178 -126 -304t-304 -126v-158h-287v158q-178 0 -304 126t-126 304zM129 430q0 -125 88 -213t213 -88h129v-158h29v158h129q125 0 213 88t88 213v574q0 125 -88 213t-213 88h-287 q-125 0 -213 -88.5t-88 -212.5v-574zM158 430v574q0 113 79.5 192.5t192.5 79.5h287q113 0 192.5 -80t79.5 -192v-574q0 -113 -80 -192.5t-192 -79.5h-287q-113 0 -192.5 79.5t-79.5 192.5zM287 430q0 -59 42 -101t101 -42h287q59 0 101 42t42 101v574q0 59 -42 101t-101 42 h-287q-59 0 -101 -42t-42 -101v-574z" />
<glyph unicode="R" horiz-adv-x="1402" d="M0 0v287h143v860h-143v287h680q188 -4 320.5 -138.5t132.5 -320.5q0 -217 -172 -359l190 -329h125v-287h-574v287h117l-131 229h-258v-229h143v-287h-573zM129 129h315v29h-143v487h367q61 0 90 10l284 -497h-211v-29h316v29h-72l-289 506q45 18 80 43l15 12 q123 96 123 256q0 135 -95.5 232.5t-228.5 97.5h-551v-29h143v-1118h-143v-29zM301 674v602h373q125 0 213 -88t88 -213t-88 -213t-213 -88h-373zM430 803h244q72 0 122 51t50 120.5t-50.5 121t-121.5 51.5h-244v-344z" />
<glyph unicode="S" horiz-adv-x="1206" d="M-14 1032q0 174 135 295t330 121q186 0 323 -74v60h287v-430h-289q-76 86 -143.5 121.5t-177.5 35.5q-80 0 -129.5 -39t-49.5 -90q0 -129 287 -176q135 -20 237.5 -65.5t157 -96.5t87 -113.5t41 -106.5t8.5 -87q0 -172 -133.5 -286.5t-333.5 -114.5q-190 0 -336 77v-63 h-287v430h287q80 -86 151.5 -122t184.5 -36q78 0 129 33t51 82q0 141 -287 186q-131 20 -231.5 61.5t-155.5 89.5t-89 106.5t-44 105.5t-10 96zM115 1032q0 -266 420 -330q123 -18 206.5 -57t122.5 -87t53.5 -88t14.5 -83q0 -106 -88 -175t-221 -69q-131 0 -220.5 39 t-171.5 119h-102v-172h29v143h65q84 -86 174 -121.5t226 -35.5q154 0 247 84q90 76 91 188q0 47 -15.5 91t-56.5 96.5t-131 93.5t-219 61q-395 61 -396 303q0 102 85 180t223 78q125 0 212 -39t164 -118h105v172h-29v-144h-63q-104 111 -250 144q-57 14 -139 14 q-141 0 -238.5 -83t-97.5 -204z" />
<glyph unicode="T" d="M0 1004v430h1147v-430h-287v143h-143v-860h143v-287h-573v287h143v860h-143v-143h-287zM129 1133h29v143h401v-1118h-143v-29h315v29h-143v1118h401v-143h29v172h-889v-172z" />
<glyph unicode="U" horiz-adv-x="1476" d="M0 1147v287h573v-287h-143v-717q0 -59 42 -101t101 -42h201q59 0 101.5 42t42.5 101v717h-144v287h574v-287h-144v-717q0 -178 -126 -304t-304 -126h-201q-178 0 -304 126t-126 304v717h-143zM129 1276h143v-846q0 -125 88.5 -213t212.5 -88h201q125 0 213 88t88 213v846 h144v29h-316v-29h144v-846q0 -113 -80 -192.5t-193 -79.5h-201q-113 0 -192.5 79.5t-79.5 192.5v846h143v29h-315v-29z" />
<glyph unicode="V" horiz-adv-x="1476" d="M0 1147v287h573v-287h-135l236 -727l235 727h-135v287h574v-287h-138l-372 -1147h-328l-373 1147h-137zM129 1276h100l373 -1147h143l373 1147h101v29h-316v-29h184l-364 -1118h-98l-365 1118h184v29h-315v-29z" />
<glyph unicode="W" horiz-adv-x="1851" d="M0 1147v287h573v-287h-139l166 -729l260 606l260 -606l166 729h-139v287h573v-287h-141l-260 -1147h-332l-127 295l-127 -295h-332l-260 1147h-141zM129 1276h115l262 -1147h143l211 494l211 -494h143l263 1147h114v29h-315v-29h172l-256 -1118h-100l-232 538l-231 -538 h-101l-256 1118h172v29h-315v-29z" />
<glyph unicode="X" horiz-adv-x="1402" d="M0 0v287h119l336 422l-349 438h-106v287h573v-287h-100l164 -207l166 207h-101v287h574v-287h-107l-348 -438l336 -422h119v-287h-574v287h91l-156 192l-154 -192h90v-287h-573zM129 129h315v29h-227l420 528l422 -528h-228v-29h316v29h-51l-441 551l453 567h39v29h-316 v-29h240l-434 -543l-432 543h239v29h-315v-29h39l453 -567l-441 -551h-51v-29z" />
<glyph unicode="Y" horiz-adv-x="1464" d="M0 1147v287h573v-287h-108l201 -293l202 293h-108v287h573v-287h-116l-408 -590v-270h143v-287h-573v287h143v270l-405 590h-117zM129 1276h55l467 -678v-440h-143v-29h315v29h-143v440l469 678h55v29h-315v-29h225l-448 -649l-447 649h225v29h-315v-29z" />
<glyph unicode="Z" horiz-adv-x="1347" d="M-14 0l729 1147h-428v-143h-287v430h1235l-727 -1147h424v143h287v-430h-1233zM129 1133h29v143h790l-727 -1147h869v172h-29v-143h-789l729 1147h-872v-172z" />
<glyph unicode="[" horiz-adv-x="544" d="M0 -272v1863h430v-286h-143v-1291h143v-286h-430zM129 -143h172v28h-143v1549h143v28h-172v-1605z" />
<glyph unicode="\" horiz-adv-x="991" d="M0 1591h303l574 -1720h-304zM178 1462l488 -1462h30l-487 1462h-31z" />
<glyph unicode="]" horiz-adv-x="544" d="M0 14h143v1291h-143v286h430v-1863h-430v286zM129 -115v-28h172v1605h-172v-28h143v-1549h-143z" />
<glyph unicode="^" horiz-adv-x="1308" d="M0 575l430 861h320l430 -861h-320l-270 539l-271 -539h-319zM209 705h33l286 573h125l287 -573h33l-301 602h-162z" />
<glyph unicode="_" d="M0 0h1147v-287h-1147v287zM129 -129v-29h889v29h-889z" />
<glyph unicode="`" horiz-adv-x="458" d="M-193 1434h347l190 -287h-344zM49 1305l19 -29h34l-18 29h-35z" />
<glyph unicode="a" horiz-adv-x="1531" d="M0 0v287h139l344 1147h439l344 -1147h139v-287h-574v287h136l-43 143h-443l-43 -143h135v-287h-573zM129 129h315v29h-180l121 401h635l121 -401h-180v-29h315v29h-107l-344 1147h-247l-345 -1147h-104v-29zM393 588l207 688h205l207 -688h-619zM567 717h271l-129 430 h-13z" />
<glyph unicode="b" d="M0 0v287h143v860h-143v287h717q172 0 294 -122t122 -294q0 -147 -97 -266q125 -129 125 -308q0 -184 -130 -314t-314 -130h-717zM129 129h588q131 0 223 92t92 223q0 127 -88 220l-8 8q-27 25 -57.5 43t-49.5 24l-18 6q76 29 115 76l12 15q66 82 66 182q0 119 -84 203 t-203 84h-588v-29h143v-1118h-143v-29zM301 158v573h416q119 0 203 -84t84 -202.5t-84 -202.5t-203 -84h-416zM301 760v516h416q106 0 182 -76t76 -182.5t-76 -182t-182 -75.5h-416zM430 287h287q66 0 111.5 46t45.5 111q0 63 -46 110.5t-111 47.5h-287v-315zM430 889h287 q53 0 91 38t38 91t-38 91t-91 38h-287v-258z" />
<glyph unicode="c" horiz-adv-x="1261" d="M0 430v574q0 178 126 304t304 126h287q178 0 304 -126t126 -304v-72h-287v72q0 59 -42 101t-101 42h-287q-59 0 -101 -42t-42 -101v-574q0 -59 42 -101t101 -42h287q59 0 101 42t42 101v72h287v-72q0 -178 -126 -304t-304 -126h-287q-178 0 -304 126t-126 304zM129 430 q0 -125 88 -213t213 -88h287q109 0 191.5 69.5t103.5 174.5h-29q-20 -92 -94 -153.5t-172 -61.5h-287q-113 0 -192.5 79.5t-79.5 192.5v574q0 113 79.5 192.5t192.5 79.5h287q98 0 172 -61.5t94 -153.5h29q-20 104 -103.5 174t-191.5 70h-287q-125 0 -213 -88.5t-88 -212.5 v-574z" />
<glyph unicode="d" horiz-adv-x="1261" d="M0 0v287h143v860h-143v287h573q238 0 406 -168t168 -406v-287q0 -238 -168 -405.5t-406 -167.5h-573zM129 129h444q184 0 314.5 130t130.5 314v287q0 184 -130 314.5t-315 130.5h-444v-29h143v-1118h-143v-29zM301 158v1118h272q172 0 294 -122t122 -294v-287 q0 -172 -122 -293.5t-294 -121.5h-272zM430 287h143q119 0 203 84t84 202v287q0 119 -84 203t-203 84h-143v-860z" />
<glyph unicode="e" horiz-adv-x="1132" d="M0 0v287h143v860h-143v287h1004v-430h-287v143h-287v-287h287v-287h-287v-286h287v143h287v-430h-1004zM129 129h745v172h-28v-143h-545v544h287v29h-287v545h545v-143h28v172h-745v-29h143v-1118h-143v-29z" />
<glyph unicode="f" horiz-adv-x="1132" d="M0 0v287h143v860h-143v287h1004v-430h-287v143h-287v-287h287v-287h-287v-286h143v-287h-573zM129 129h315v29h-143v544h287v29h-287v545h545v-143h28v172h-745v-29h143v-1118h-143v-29z" />
<glyph unicode="g" horiz-adv-x="1261" d="M0 430v574q0 178 126 304t304 126h287q178 0 304 -126t126 -304v-72h-287v72q0 59 -42 101t-101 42h-287q-59 0 -101 -42t-42 -101v-574q0 -59 42 -101t101 -42h287q59 0 101 42t42 101v57h-287v287h574v-344q0 -178 -126 -304t-304 -126h-287q-178 0 -304 126t-126 304z M129 430q0 -125 88 -213t213 -88h287q125 0 213 88t88 213v215h-316v-29h287v-186q0 -113 -80 -192.5t-192 -79.5h-287q-113 0 -192.5 79.5t-79.5 192.5v574q0 113 79.5 192.5t192.5 79.5h287q98 0 172 -61.5t94 -153.5h29q-20 104 -103.5 174t-191.5 70h-287 q-125 0 -213 -88.5t-88 -212.5v-574z" />
<glyph unicode="h" horiz-adv-x="1402" d="M0 0v287h143v860h-143v287h573v-287h-143v-287h416v287h-144v287h574v-287h-143v-860h143v-287h-574v287h144v286h-416v-286h143v-287h-573zM129 129h315v29h-143v544h674v-544h-144v-29h316v29h-143v1118h143v29h-316v-29h144v-545h-674v545h143v29h-315v-29h143v-1118 h-143v-29z" />
<glyph unicode="i" horiz-adv-x="702" d="M0 0v287h143v860h-143v287h573v-287h-143v-860h143v-287h-573zM129 129h315v29h-143v1118h143v29h-315v-29h143v-1118h-143v-29z" />
<glyph unicode="j" horiz-adv-x="1132" d="M0 430v143h287v-143q0 -59 42 -101t101 -42t101 42t42 101v717h-143v287h574v-287h-144v-717q0 -178 -126 -304t-304 -126t-304 126t-126 304zM129 430q0 -125 88 -213t213 -88t213 88t88 213v846h143v29h-315v-29h143v-846q0 -113 -79.5 -192.5t-192.5 -79.5 t-192.5 79.5t-79.5 192.5v14h-29v-14z" />
<glyph unicode="k" horiz-adv-x="1431" d="M0 0v287h143v860h-143v287h559v-287h-129v-350l361 350h-74v287h588v-287h-103l-346 -336l313 -524h136v-287h-574v287h105l-191 319l-215 -209v-110h143v-287h-573zM129 129h315v29h-143v295l373 360l389 -655h-203v-29h316v29h-80l-402 676l457 442h25v29h-330v-29h264 l-809 -782v782h129v29h-301v-29h143v-1118h-143v-29z" />
<glyph unicode="l" horiz-adv-x="1132" d="M0 0v287h143v860h-143v287h573v-287h-143v-860h287v143h287v-430h-1004zM129 129h745v172h-28v-143h-545v1118h143v29h-315v-29h143v-1118h-143v-29z" />
<glyph unicode="m" horiz-adv-x="1560" d="M0 0v287h143v860h-143v287h434l283 -449l282 449h435v-287h-144v-860h144v-287h-574v287h144v616l-287 -454l-287 454v-616h143v-287h-573zM129 129h315v29h-143v1118h45l371 -586l370 586h46v-1118h-144v-29h316v29h-144v1118h144v29h-234l-354 -562l-355 562h-233v-29 h143v-1118h-143v-29z" />
<glyph unicode="n" horiz-adv-x="1548" d="M0 0v287h143v860h-143v287h430l559 -893v606h-143v287h573v-287h-143v-1147h-287l-559 893v-606h143v-287h-573zM129 129h315v29h-143v1118h41l719 -1147h86v1147h143v29h-315v-29h143v-1118h-41l-719 1147h-229v-29h143v-1118h-143v-29z" />
<glyph unicode="o" d="M0 430v574q0 178 126 304t304 126h287q178 0 304 -126t126 -304v-574q0 -178 -126 -304t-304 -126h-287q-178 0 -304 126t-126 304zM129 430q0 -125 88 -213t213 -88h287q125 0 213 88t88 213v574q0 125 -88 213t-213 88h-287q-125 0 -213 -88.5t-88 -212.5v-574z M158 430v574q0 113 79.5 192.5t192.5 79.5h287q113 0 192.5 -80t79.5 -192v-574q0 -113 -80 -192.5t-192 -79.5h-287q-113 0 -192.5 79.5t-79.5 192.5zM287 430q0 -59 42 -101t101 -42h287q59 0 101 42t42 101v574q0 59 -42 101t-101 42h-287q-59 0 -101 -42t-42 -101v-574z " />
<glyph unicode="p" horiz-adv-x="1247" d="M0 0v287h143v860h-143v287h674q190 0 324.5 -134.5t134.5 -325t-134.5 -324.5t-324.5 -134h-244v-229h143v-287h-573zM129 129h315v29h-143v487h373q137 0 233.5 96.5t96.5 233.5t-96.5 233.5t-233.5 96.5h-545v-29h143v-1118h-143v-29zM301 674v602h373q125 0 213 -88 t88 -213t-88 -213t-213 -88h-373zM430 803h244q72 0 122 51t50 120.5t-50.5 121t-121.5 51.5h-244v-344z" />
<glyph unicode="q" horiz-adv-x="1261" d="M0 430v574q0 178 126 304t304 126h287q178 0 304 -126t126 -304v-574q0 -178 -126 -304t-304 -126v-158h-287v158q-178 0 -304 126t-126 304zM129 430q0 -125 88 -213t213 -88h129v-158h29v158h129q125 0 213 88t88 213v574q0 125 -88 213t-213 88h-287 q-125 0 -213 -88.5t-88 -212.5v-574zM158 430v574q0 113 79.5 192.5t192.5 79.5h287q113 0 192.5 -80t79.5 -192v-574q0 -113 -80 -192.5t-192 -79.5h-287q-113 0 -192.5 79.5t-79.5 192.5zM287 430q0 -59 42 -101t101 -42h287q59 0 101 42t42 101v574q0 59 -42 101t-101 42 h-287q-59 0 -101 -42t-42 -101v-574z" />
<glyph unicode="r" horiz-adv-x="1402" d="M0 0v287h143v860h-143v287h680q188 -4 320.5 -138.5t132.5 -320.5q0 -217 -172 -359l190 -329h125v-287h-574v287h117l-131 229h-258v-229h143v-287h-573zM129 129h315v29h-143v487h367q61 0 90 10l284 -497h-211v-29h316v29h-72l-289 506q45 18 80 43l15 12 q123 96 123 256q0 135 -95.5 232.5t-228.5 97.5h-551v-29h143v-1118h-143v-29zM301 674v602h373q125 0 213 -88t88 -213t-88 -213t-213 -88h-373zM430 803h244q72 0 122 51t50 120.5t-50.5 121t-121.5 51.5h-244v-344z" />
<glyph unicode="s" horiz-adv-x="1206" d="M-14 1032q0 174 135 295t330 121q186 0 323 -74v60h287v-430h-289q-76 86 -143.5 121.5t-177.5 35.5q-80 0 -129.5 -39t-49.5 -90q0 -129 287 -176q135 -20 237.5 -65.5t157 -96.5t87 -113.5t41 -106.5t8.5 -87q0 -172 -133.5 -286.5t-333.5 -114.5q-190 0 -336 77v-63 h-287v430h287q80 -86 151.5 -122t184.5 -36q78 0 129 33t51 82q0 141 -287 186q-131 20 -231.5 61.5t-155.5 89.5t-89 106.5t-44 105.5t-10 96zM115 1032q0 -266 420 -330q123 -18 206.5 -57t122.5 -87t53.5 -88t14.5 -83q0 -106 -88 -175t-221 -69q-131 0 -220.5 39 t-171.5 119h-102v-172h29v143h65q84 -86 174 -121.5t226 -35.5q154 0 247 84q90 76 91 188q0 47 -15.5 91t-56.5 96.5t-131 93.5t-219 61q-395 61 -396 303q0 102 85 180t223 78q125 0 212 -39t164 -118h105v172h-29v-144h-63q-104 111 -250 144q-57 14 -139 14 q-141 0 -238.5 -83t-97.5 -204z" />
<glyph unicode="t" d="M0 1004v430h1147v-430h-287v143h-143v-860h143v-287h-573v287h143v860h-143v-143h-287zM129 1133h29v143h401v-1118h-143v-29h315v29h-143v1118h401v-143h29v172h-889v-172z" />
<glyph unicode="u" horiz-adv-x="1476" d="M0 1147v287h573v-287h-143v-717q0 -59 42 -101t101 -42h201q59 0 101.5 42t42.5 101v717h-144v287h574v-287h-144v-717q0 -178 -126 -304t-304 -126h-201q-178 0 -304 126t-126 304v717h-143zM129 1276h143v-846q0 -125 88.5 -213t212.5 -88h201q125 0 213 88t88 213v846 h144v29h-316v-29h144v-846q0 -113 -80 -192.5t-193 -79.5h-201q-113 0 -192.5 79.5t-79.5 192.5v846h143v29h-315v-29z" />
<glyph unicode="v" horiz-adv-x="1476" d="M0 1147v287h573v-287h-135l236 -727l235 727h-135v287h574v-287h-138l-372 -1147h-328l-373 1147h-137zM129 1276h100l373 -1147h143l373 1147h101v29h-316v-29h184l-364 -1118h-98l-365 1118h184v29h-315v-29z" />
<glyph unicode="w" horiz-adv-x="1851" d="M0 1147v287h573v-287h-139l166 -729l260 606l260 -606l166 729h-139v287h573v-287h-141l-260 -1147h-332l-127 295l-127 -295h-332l-260 1147h-141zM129 1276h115l262 -1147h143l211 494l211 -494h143l263 1147h114v29h-315v-29h172l-256 -1118h-100l-232 538l-231 -538 h-101l-256 1118h172v29h-315v-29z" />
<glyph unicode="x" horiz-adv-x="1402" d="M0 0v287h119l336 422l-349 438h-106v287h573v-287h-100l164 -207l166 207h-101v287h574v-287h-107l-348 -438l336 -422h119v-287h-574v287h91l-156 192l-154 -192h90v-287h-573zM129 129h315v29h-227l420 528l422 -528h-228v-29h316v29h-51l-441 551l453 567h39v29h-316 v-29h240l-434 -543l-432 543h239v29h-315v-29h39l453 -567l-441 -551h-51v-29z" />
<glyph unicode="y" horiz-adv-x="1464" d="M0 1147v287h573v-287h-108l201 -293l202 293h-108v287h573v-287h-116l-408 -590v-270h143v-287h-573v287h143v270l-405 590h-117zM129 1276h55l467 -678v-440h-143v-29h315v29h-143v440l469 678h55v29h-315v-29h225l-448 -649l-447 649h225v29h-315v-29z" />
<glyph unicode="z" horiz-adv-x="1347" d="M-14 0l729 1147h-428v-143h-287v430h1235l-727 -1147h424v143h287v-430h-1233zM129 1133h29v143h790l-727 -1147h869v172h-29v-143h-789l729 1147h-872v-172z" />
<glyph unicode="{" horiz-adv-x="690" d="M0 588v286q59 0 101 42t42 102v143q0 178 126 304t304 126v-286q-59 0 -101 -42t-42 -102v-143q0 -166 -111 -287q111 -121 111 -287v-286q0 -59 42 -101.5t101 -42.5v-286q-178 0 -304 126t-126 304v286q0 59 -42 101.5t-101 42.5zM129 684q66 -35 104.5 -98.5 t38.5 -141.5v-286q0 -90 47.5 -163t124.5 -110v33q-66 35 -104.5 98.5t-38.5 141.5v286q0 102 -63 185q-45 51 -80 69v64q31 20 61 49l4 6q78 84 78 201v143q0 78 39 141.5t104 98.5v33q-78 -37 -125 -111t-47 -162v-143q0 -78 -38.5 -141.5t-104.5 -98.5v-94z" />
<glyph unicode="|" horiz-adv-x="415" d="M0 -559v2294h287v-2294h-287zM0 -559v2294h287v-2294h-287zM129 -430h29v2036h-29v-2036z" />
<glyph unicode="}" horiz-adv-x="690" d="M0 14q59 0 101 42t42 102v286q0 166 111 287q-111 121 -111 287v143q0 59 -42 101.5t-101 42.5v286q178 0 304 -126t126 -304v-143q0 -59 42 -101.5t101 -42.5v-286q-59 0 -101 -42t-42 -102v-286q0 -178 -126 -304t-304 -126v286zM129 -82v-33q78 37 125 110t47 163v286 q0 78 39 141.5t104 98.5v94q-66 35 -104.5 98.5t-38.5 141.5v143q0 88 -47 162t-125 111v-33q66 -35 104.5 -98.5t38.5 -141.5v-143q0 -117 78 -201l4 -6q31 -29 62 -49v-64q-33 -16 -80 -69q-63 -82 -64 -185v-286q0 -78 -38.5 -141.5t-104.5 -98.5z" />
<glyph unicode="~" horiz-adv-x="989" d="M0 909v219q96 18 187.5 19.5t140.5 -6.5t125 -27q74 -16 116.5 -23.5t120.5 -4t168 23.5l2 -8v-211q-94 -20 -198 -21q-117 0 -256 35q-76 16 -118 23.5t-120 4t-168 -23.5z" />
<glyph unicode="&#xa1;" horiz-adv-x="415" d="M0 0v1004h287v-1004h-287zM0 1147v287h287v-287h-287z" />
<glyph unicode="&#xa2;" horiz-adv-x="1261" d="M0 717v287q0 178 126 304t304 126v143h287v-143q178 0 304 -126t126 -304h-287q0 59 -42 101t-101 42h-287q-59 0 -101 -42t-42 -101v-287q0 -59 42 -101.5t101 -42.5h287q59 0 101 42t42 102h287q0 -178 -126 -304t-304 -126v-144h-287v144q-178 0 -304 126t-126 304z M129 717q0 -125 88 -213t213 -88h129v-144h29v144h129q90 0 162.5 47t109.5 125h-33q-35 -66 -98 -105t-141 -39h-287q-113 0 -192.5 80t-79.5 193v287q0 113 79.5 192.5t192.5 79.5h287q78 0 141.5 -39t97.5 -104h33q-37 78 -109.5 125t-162.5 47h-129v143h-29v-143h-129 q-125 0 -213 -88.5t-88 -212.5v-287z" />
<glyph unicode="&#xa3;" horiz-adv-x="989" d="M0 -8v293q80 16 143 18v199h-143v286h143v216q0 178 126 304t304 126h144v-287h-144q-59 0 -101 -42t-42 -101v-216h143v-286h-143v-226q4 -2 14.5 -4t16.5 -4q131 -29 201 -28q78 0 188 24l10 2v-293q-109 -20 -198 -20q-113 0 -265 37q-131 29 -200 28q-78 0 -189 -24z M129 143q45 4 68 4q90 0 229 -32q147 -33 236 -33q20 0 69 4v29q-45 -4 -69 -4q-90 0 -230 32q-109 20 -131 25v463h143v28h-143v345q0 113 80 192.5t192 79.5h15v29h-15q-125 0 -213 -88.5t-88 -212.5v-345h-143v-28h143v-459q-49 4 -75 4q-23 0 -68 -4v-29z" />
<glyph unicode="&#xa5;" horiz-adv-x="1464" d="M0 1147v287h573v-287h-108l201 -293l202 293h-108v287h573v-287h-116l-297 -430h170v-215h-281v-144h281v-215h-281v-143h-287v143h-278v215h278v144h-278v215h170l-297 430h-117zM129 1276h55l451 -653h-262v-29h278v-330h-278v-28h278v-107h29v107h281v28h-281v330h281 v29h-263l451 653h55v29h-315v-29h225l-448 -649l-447 649h225v29h-315v-29z" />
<glyph unicode="&#xa6;" horiz-adv-x="415" d="M0 444h287v-1003h-287v1003zM0 731v1004h287v-1004h-287zM129 315v-745h29v745h-29zM129 860h29v746h-29v-746z" />
<glyph unicode="&#xa7;" horiz-adv-x="1206" d="M-14 760q0 166 123 284q-123 119 -123 289q0 174 135 295t330 121q186 0 323 -74v60h287v-430h-289q-76 86 -143.5 121.5t-177.5 35.5q-80 0 -129.5 -39t-49.5 -90q0 -129 287 -176q135 -20 237.5 -65t157 -96.5t87 -114t41 -106.5t8.5 -87q0 -164 -125 -278 q125 -123 125 -295t-133.5 -287t-333.5 -115q-190 0 -336 78v-63h-287v430h287q80 -86 151.5 -122t184.5 -36q78 0 129 33t51 82q0 141 -287 186q-131 20 -231.5 61t-155.5 89.5t-89 106.5t-44 105.5t-10 96.5zM115 760q0 -266 420 -332h6q121 -18 203.5 -56t120.5 -86 t52.5 -88t14.5 -83q0 -106 -87 -175t-220 -69q-131 0 -220.5 39t-171.5 119h-104v-172h29v143h65q86 -86 175 -122t227 -36q152 0 247 84q88 76 89 189q0 215 -267 307q119 16 193 89t74 177q0 47 -15.5 91t-56.5 96.5t-130 93.5t-218 61l-68 12q-330 72 -330 291 q0 102 85 180t223 78q125 0 212 -39t164 -118h105v172h-29v-144h-63q-104 111 -250 144q-57 14 -139 14q-141 0 -238.5 -83t-97.5 -204q0 -209 260 -293q-119 -23 -189.5 -103.5t-70.5 -176.5zM143 760q0 102 85 180t223 78l84 -17q221 -33 309 -119.5t88 -193t-87 -175.5 t-220 -69l-86 13q-396 61 -396 303zM260 782q-14 -63 59.5 -123.5t188.5 -83t205 6t102 92.5q14 63 -58.5 124.5t-189 84t-206 -7.5t-101.5 -93z" />
<glyph unicode="&#xa8;" horiz-adv-x="860" d="M-20 1290.5q0 59.5 41.5 101.5t101 42t101.5 -42t42 -101.5t-42 -101.5t-101.5 -42t-101 42t-41.5 101.5zM100 1290q0 -23 23 -22q20 0 20 22q0 20 -20 21q-23 -1 -23 -21zM424 1290.5q0 59.5 42 101.5t101.5 42t101.5 -42t42 -101.5t-42 -101.5t-101.5 -42t-101.5 42 t-42 101.5zM545 1290q0 -23 22 -22q20 0 21 22q0 20 -21 21q-22 -1 -22 -21z" />
<glyph unicode="&#xa9;" horiz-adv-x="681" d="M0 1153q0 117 82 199t197 82q117 0 198.5 -82t81.5 -199q0 -115 -82 -197t-198 -82q-115 0 -197 82t-82 197zM57 1153q0 -90 65.5 -155.5t156.5 -65.5q92 0 157.5 65.5t65.5 155.5q0 92 -65.5 157.5t-157.5 65.5q-90 0 -156 -65.5t-66 -157.5zM172 1092v122q0 39 26.5 66 t65.5 27h31q39 0 65.5 -27t26.5 -66v-14h-61v14q0 31 -31 31h-31q-31 0 -31 -31v-122q0 -12 9.5 -21.5t21.5 -9.5h31q12 0 21.5 9t9.5 22v16h61v-16q0 -37 -26.5 -65t-65.5 -28h-31q-39 0 -65.5 28t-26.5 65z" />
<glyph unicode="&#xaa;" horiz-adv-x="1531" d="M0 0v287h139l344 1147h439l344 -1147h139v-287h-574v287h136l-43 143h-443l-43 -143h135v-287h-573zM129 129h315v29h-180l121 401h635l121 -401h-180v-29h315v29h-107l-344 1147h-247l-345 -1147h-104v-29zM393 588l207 688h205l207 -688h-619zM567 717h271l-129 430 h-13z" />
<glyph unicode="&#xab;" horiz-adv-x="1519" d="M0 705l705 704v-405l-299 -299l299 -299v-406zM182 705l393 -394v41l-352 353l352 352v41zM702 705l705 704v-405l-299 -299l299 -299v-406zM885 705l393 -394v41l-352 353l352 352v41z" />
<glyph unicode="&#xad;" horiz-adv-x="989" d="M0 573v287h860v-287h-860zM129 702h602v29h-602v-29z" />
<glyph unicode="&#xae;" horiz-adv-x="681" d="M0 1153q0 117 82 199t197 82q117 0 198.5 -82t81.5 -199q0 -115 -82 -197t-198 -82q-115 0 -197 82t-82 197zM57 1153q0 -90 65.5 -155.5t156.5 -65.5q92 0 157.5 65.5t65.5 155.5q0 92 -65.5 157.5t-157.5 65.5q-90 0 -156 -65.5t-66 -157.5zM162 1016v57h28v174h-28v58 h145q35 -4 58.5 -31t23.5 -62q0 -45 -33 -71l37 -68h25v-57h-115v57h25l-27 47h-51v-47h29v-57h-117zM250 1178h47q14 0 24.5 10t10.5 24.5t-10.5 24.5t-24.5 10h-47v-69z" />
<glyph unicode="&#xb0;" horiz-adv-x="749" d="M0 1118q0 131 92 223.5t221 92.5q131 0 223.5 -92.5t92.5 -223.5q0 -129 -92.5 -221t-223.5 -92q-129 0 -221 92t-92 221zM215 1118q0 -41 29.5 -69.5t68.5 -28.5q41 0 71 28.5t30 69.5t-30 71t-71 30t-69.5 -30t-28.5 -71z" />
<glyph unicode="&#xb1;" horiz-adv-x="989" d="M0 0v287h860v-287h-860zM0 717v287h287v286h286v-286h287v-287h-287v-287h-286v287h-287zM129 129h602v29h-602v-29zM129 846h287v-287h28v287h287v28h-287v287h-28v-287h-287v-28z" />
<glyph unicode="&#xb2;" horiz-adv-x="616" d="M0 715v145q256 236 303 281q55 51 55 76q0 29 -21.5 50t-49.5 21h-72q-29 0 -50.5 -21.5t-21.5 -49.5h-143q0 90 63.5 152.5t151.5 62.5h72q90 0 152.5 -62.5t62.5 -152.5q0 -51 -23.5 -91.5t-79.5 -91.5q-4 -4 -69.5 -65.5t-120.5 -110.5h149v72h144v-215h-502z" />
<glyph unicode="&#xb3;" horiz-adv-x="616" d="M0 930h143q0 -31 21.5 -51.5t50.5 -20.5h72q29 0 50 20.5t21 51.5q0 29 -21.5 50t-49.5 21h-72v144h72q29 0 50 20.5t21 51.5q0 29 -21.5 50t-49.5 21h-72q-29 0 -50.5 -21.5t-21.5 -49.5h-143q0 88 63.5 151.5t151.5 63.5h72q88 0 151.5 -63.5t63.5 -151.5 q0 -84 -56 -144q55 -61 56 -143q0 -90 -62.5 -152.5t-152.5 -62.5h-72q-88 0 -151.5 62.5t-63.5 152.5z" />
<glyph unicode="&#xb4;" horiz-adv-x="649" d="M0 1147l190 287h347l-193 -287h-344zM242 1276h34l19 29h-35z" />
<glyph unicode="&#xb9;" horiz-adv-x="415" d="M0 715v143h72v430h-72v144h215v-574h72v-143h-287z" />
<glyph unicode="&#xba;" d="M0 430v574q0 178 126 304t304 126h287q178 0 304 -126t126 -304v-574q0 -178 -126 -304t-304 -126h-287q-178 0 -304 126t-126 304zM129 430q0 -125 88 -213t213 -88h287q125 0 213 88t88 213v574q0 125 -88 213t-213 88h-287q-125 0 -213 -88.5t-88 -212.5v-574z M158 430v574q0 113 79.5 192.5t192.5 79.5h287q113 0 192.5 -80t79.5 -192v-574q0 -113 -80 -192.5t-192 -79.5h-287q-113 0 -192.5 79.5t-79.5 192.5zM287 430q0 -59 42 -101t101 -42h287q59 0 101 42t42 101v574q0 59 -42 101t-101 42h-287q-59 0 -101 -42t-42 -101v-574z " />
<glyph unicode="&#xbb;" horiz-adv-x="1519" d="M0 0v406l299 299l-299 299v405l705 -704zM129 311l393 394l-393 393v-41l352 -352l-352 -353v-41zM702 0v406l299 299l-299 299v405l705 -704zM831 311l394 394l-394 393v-41l353 -352l-353 -353v-41z" />
<glyph unicode="&#xbc;" horiz-adv-x="1347" d="M0 715v143h72v430h-72v144h215v-574h72v-143h-287zM2 0l956 1434h172l-956 -1434h-172zM717 215v143l186 359h162l-186 -359h125v144h143v-144h72v-143h-72v-72h72v-143h-287v143h72v72h-287z" />
<glyph unicode="&#xbd;" horiz-adv-x="1390" d="M0 715v143h72v430h-72v144h215v-574h72v-143h-287zM2 0l956 1434h172l-956 -1434h-172zM760 0v145q256 236 303 281q55 51 55 76q0 29 -21.5 50t-49.5 21h-72q-29 0 -50.5 -21.5t-21.5 -49.5h-143q0 88 62.5 151.5t152.5 63.5h72q88 0 151.5 -63.5t63.5 -151.5 q0 -51 -24 -91t-79 -92q-4 -4 -69.5 -65t-120.5 -111h149v72h144v-215h-502z" />
<glyph unicode="&#xbe;" horiz-adv-x="1490" d="M0 930h143q0 -31 21.5 -51.5t50.5 -20.5h72q29 0 50 20.5t21 51.5q0 29 -21.5 50t-49.5 21h-72v144h72q29 0 50 20.5t21 51.5q0 29 -21.5 50t-49.5 21h-72q-29 0 -50.5 -21.5t-21.5 -49.5h-143q0 88 63.5 151.5t151.5 63.5h72q88 0 151.5 -63.5t63.5 -151.5 q0 -84 -56 -144q55 -61 56 -143q0 -90 -62.5 -152.5t-152.5 -62.5h-72q-88 0 -151.5 62.5t-63.5 152.5zM145 0l957 1434h172l-957 -1434h-172zM860 215v143l187 359h161l-186 -359h125v144h143v-144h72v-143h-72v-72h72v-143h-287v143h72v72h-287z" />
<glyph unicode="&#xbf;" horiz-adv-x="1118" d="M0 430v143q0 139 99.5 238.5t238.5 99.5q20 0 34.5 14.5t14.5 35.5v43h287v-43q0 -139 -98.5 -237.5t-237.5 -98.5q-23 0 -37 -15.5t-14 -36.5v-143q0 -59 42 -101t101 -42h143q59 0 101.5 42t42.5 101h287q0 -178 -126 -304t-305 -126h-143q-178 0 -304 126t-126 304z M129 430q0 -125 88 -213t213 -88h143q90 0 163 47t110 125h-33q-35 -66 -98.5 -104.5t-141.5 -38.5h-143q-113 0 -192.5 79.5t-79.5 192.5v143q0 74 52 127.5t128 53.5q61 0 112.5 32.5t75.5 87.5h-32q-51 -92 -156 -92q-86 0 -147.5 -61.5t-61.5 -147.5v-143zM387 1147v287 h287v-287h-287zM516 1276h29v29h-29v-29z" />
<glyph unicode="&#xc0;" horiz-adv-x="1531" d="M0 0v287h139l344 1147h439l344 -1147h139v-287h-574v287h136l-43 143h-443l-43 -143h135v-287h-573zM129 129h315v29h-180l121 401h635l121 -401h-180v-29h315v29h-107l-344 1147h-247l-345 -1147h-104v-29zM305 1843h346l191 -287h-344zM393 588l207 688h205l207 -688 h-619zM547 1714l18 -28h35l-18 28h-35zM567 717h271l-129 430h-13z" />
<glyph unicode="&#xc1;" horiz-adv-x="1531" d="M0 0v287h139l344 1147h439l344 -1147h139v-287h-574v287h136l-43 143h-443l-43 -143h135v-287h-573zM129 129h315v29h-180l121 401h635l121 -401h-180v-29h315v29h-107l-344 1147h-247l-345 -1147h-104v-29zM393 588l207 688h205l207 -688h-619zM498 1556l190 287h346 l-192 -287h-344zM567 717h271l-129 430h-13zM739 1686h35l19 28h-35z" />
<glyph unicode="&#xc2;" horiz-adv-x="1531" d="M0 0v287h139l344 1147h439l344 -1147h139v-287h-574v287h136l-43 143h-443l-43 -143h135v-287h-573zM129 129h315v29h-180l121 401h635l121 -401h-180v-29h315v29h-107l-344 1147h-247l-345 -1147h-104v-29zM242 1636l137 207h248l-138 -207h-247zM393 588l207 688h205 l207 -688h-619zM410 1726h32l17 27h-31zM567 717h271l-129 430h-13zM786 1843h248l137 -207h-247zM954 1753l19 -27h31l-17 27h-33z" />
<glyph unicode="&#xc3;" horiz-adv-x="1531" d="M0 0v287h139l344 1147h439l344 -1147h139v-287h-574v287h136l-43 143h-443l-43 -143h135v-287h-573zM129 129h315v29h-180l121 401h635l121 -401h-180v-29h315v29h-107l-344 1147h-247l-345 -1147h-104v-29zM270 1645v219q109 20 197 20q98 0 256 -35q2 0 5 -1t5 -1 q119 -27 199 -26q92 0 196 24l2 -8v-211q-109 -20 -198 -20q-100 0 -256 34q-2 0 -5 1t-5 1q-119 27 -199 27q-93 1 -197 -24zM362 1755q49 8 105 8q90 0 229.5 -32.5t235.5 -32.5q57 0 104 8v29q-47 -8 -104 -9q-90 0 -229.5 33t-235.5 33q-55 0 -105 -8v-29zM393 588 l207 688h205l207 -688h-619zM567 717h271l-129 430h-13z" />
<glyph unicode="&#xc4;" horiz-adv-x="1531" d="M0 0v287h139l344 1147h439l344 -1147h139v-287h-574v287h136l-43 143h-443l-43 -143h135v-287h-573zM129 129h315v29h-180l121 401h635l121 -401h-180v-29h315v29h-107l-344 1147h-247l-345 -1147h-104v-29zM338 1699.5q0 59.5 42 101.5t101.5 42t101.5 -42t42 -101.5 t-42 -101.5t-101.5 -42t-101.5 42t-42 101.5zM393 588l207 688h205l207 -688h-619zM459 1700q0 -23 22 -23q20 0 21 23q0 20 -21 20q-22 0 -22 -20zM567 717h271l-129 430h-13zM782 1699.5q0 59.5 42 101.5t101.5 42t101.5 -42t42 -101.5t-42 -101.5t-101.5 -42t-101.5 42 t-42 101.5zM903 1700q0 -23 23 -23q20 0 20 23q0 20 -20 20q-23 0 -23 -20z" />
<glyph unicode="&#xc5;" horiz-adv-x="1531" d="M0 0v287h139l344 1147h439l344 -1147h139v-287h-574v287h136l-43 143h-443l-43 -143h135v-287h-573zM129 129h315v29h-180l121 401h635l121 -401h-180v-29h315v29h-107l-344 1147h-247l-345 -1147h-104v-29zM393 588l207 688h205l207 -688h-619zM492 1698q0 88 63 151.5 t151.5 63.5t152 -63.5t63.5 -151.5t-63.5 -151.5t-152 -63.5t-151.5 63.5t-63 151.5zM567 717h271l-129 430h-13zM635 1697.5q0 -28.5 21.5 -50t50 -21.5t50 21.5t21.5 50t-21.5 50t-50 21.5t-50 -21.5t-21.5 -50z" />
<glyph unicode="&#xc6;" horiz-adv-x="1863" d="M0 0v287h139l344 1147h1266v-430h-287v143h-286v-287h286v-287h-286v-286h286v143h287v-430h-1004v287h144v143h-408l-43 -143h135v-287h-573zM129 129h315v29h-180l121 401h633v-401h-144v-29h746v172h-29v-143h-544v544h286v29h-286v545h544v-143h29v172h-1042 l-345 -1147h-104v-29zM393 588l207 688h418v-688h-625zM567 717h322v430h-193z" />
<glyph unicode="&#xc7;" horiz-adv-x="1261" d="M0 430v574q0 178 126 304t304 126h287q178 0 304 -126t126 -304h-287q0 59 -42 101t-101 42h-287q-59 0 -101 -42t-42 -101v-574q0 -59 42 -101t101 -42h287q59 0 101 42t42 101h287q0 -178 -126 -304t-304 -126v-158h-287v158q-178 0 -304 126t-126 304zM129 430 q0 -125 88 -213t213 -88h129v-158h29v158h129q90 0 162.5 47t109.5 125h-33q-35 -66 -98 -104.5t-141 -38.5h-287q-113 0 -192.5 79.5t-79.5 192.5v574q0 113 79.5 192.5t192.5 79.5h287q78 0 141.5 -39t97.5 -104h33q-37 78 -109.5 125t-162.5 47h-287q-125 0 -213 -88.5 t-88 -212.5v-574z" />
<glyph unicode="&#xc8;" horiz-adv-x="1132" d="M0 0v287h143v860h-143v287h1004v-430h-287v143h-287v-287h287v-287h-287v-286h287v143h287v-430h-1004zM106 1843h347l190 -287h-344zM129 129h745v172h-28v-143h-545v544h287v29h-287v545h545v-143h28v172h-745v-29h143v-1118h-143v-29zM348 1714l19 -28h34l-18 28h-35z " />
<glyph unicode="&#xc9;" horiz-adv-x="1132" d="M0 0v287h143v860h-143v287h1004v-430h-287v143h-287v-287h287v-287h-287v-286h287v143h287v-430h-1004zM129 129h745v172h-28v-143h-545v544h287v29h-287v545h545v-143h28v172h-745v-29h143v-1118h-143v-29zM299 1556l190 287h347l-193 -287h-344zM541 1686h34l19 28h-35 z" />
<glyph unicode="&#xca;" horiz-adv-x="1132" d="M0 0v287h143v860h-143v287h1004v-430h-287v143h-287v-287h287v-287h-287v-286h287v143h287v-430h-1004zM74 1636l137 207h248l-137 -207h-248zM129 129h745v172h-28v-143h-545v544h287v29h-287v545h545v-143h28v172h-745v-29h143v-1118h-143v-29zM242 1726h32l17 27h-31z M618 1843h248l138 -207h-248zM786 1753l19 -27h31l-17 27h-33z" />
<glyph unicode="&#xcb;" horiz-adv-x="1132" d="M0 0v287h143v860h-143v287h1004v-430h-287v143h-287v-287h287v-287h-287v-286h287v143h287v-430h-1004zM129 129h745v172h-28v-143h-545v544h287v29h-287v545h545v-143h28v172h-745v-29h143v-1118h-143v-29zM129 1699.5q0 59.5 42 101.5t101.5 42t101.5 -42t42 -101.5 t-42 -101.5t-101.5 -42t-101.5 42t-42 101.5zM250 1700q0 -23 22 -23q20 0 21 23q0 20 -21 20q-22 0 -22 -20zM573 1699.5q0 59.5 42 101.5t101.5 42t101.5 -42t42 -101.5t-42 -101.5t-101.5 -42t-101.5 42t-42 101.5zM694 1700q0 -23 23 -23q20 0 20 23q0 20 -20 20 q-23 0 -23 -20z" />
<glyph unicode="&#xcc;" horiz-adv-x="702" d="M-109 1843h347l190 -287h-344zM0 0v287h143v860h-143v287h573v-287h-143v-860h143v-287h-573zM129 129h315v29h-143v1118h143v29h-315v-29h143v-1118h-143v-29zM133 1714l19 -28h34l-18 28h-35z" />
<glyph unicode="&#xcd;" horiz-adv-x="702" d="M0 0v287h143v860h-143v287h573v-287h-143v-860h143v-287h-573zM84 1556l190 287h347l-193 -287h-344zM129 129h315v29h-143v1118h143v29h-315v-29h143v-1118h-143v-29zM326 1686h34l19 28h-35z" />
<glyph unicode="&#xce;" horiz-adv-x="702" d="M-174 1636l137 207h248l-137 -207h-248zM-6 1726h33l16 27h-31zM0 0v287h143v860h-143v287h573v-287h-143v-860h143v-287h-573zM129 129h315v29h-143v1118h143v29h-315v-29h143v-1118h-143v-29zM371 1843h247l138 -207h-248zM539 1753l18 -27h31l-17 27h-32z" />
<glyph unicode="&#xcf;" horiz-adv-x="702" d="M-74 1699.5q0 59.5 42 101.5t101.5 42t101.5 -42t42 -101.5t-42 -101.5t-101.5 -42t-101.5 42t-42 101.5zM0 0v287h143v860h-143v287h573v-287h-143v-860h143v-287h-573zM47 1700q0 -23 23 -23q20 0 20 23q0 20 -20 20q-23 0 -23 -20zM129 129h315v29h-143v1118h143v29 h-315v-29h143v-1118h-143v-29zM371 1699.5q0 59.5 42 101.5t101 42t101 -42t42 -101.5t-42 -101.5t-101 -42t-101 42t-42 101.5zM492 1700q0 -23 22 -23q20 0 21 23q0 20 -21 20q-22 0 -22 -20z" />
<glyph unicode="&#xd1;" horiz-adv-x="1548" d="M0 0v287h143v860h-143v287h430l559 -893v606h-143v287h573v-287h-143v-1147h-287l-559 893v-606h143v-287h-573zM129 129h315v29h-143v1118h41l719 -1147h86v1147h143v29h-315v-29h143v-1118h-41l-719 1147h-229v-29h143v-1118h-143v-29zM279 1645v219q109 20 196 20 q98 0 256 -35q2 0 5 -1t5 -1q119 -27 199 -26q92 0 197 24l2 -8v-211q-109 -20 -199 -20q-100 0 -256 34q-2 0 -5 1t-5 1q-119 27 -199 27q-92 1 -196 -24zM371 1755q49 8 104 8q90 0 229.5 -32.5t235.5 -32.5q57 0 104 8v29q-47 -8 -104 -9q-90 0 -229.5 33t-235.5 33 q-55 0 -104 -8v-29z" />
<glyph unicode="&#xd2;" d="M0 430v574q0 178 126 304t304 126h287q178 0 304 -126t126 -304v-574q0 -178 -126 -304t-304 -126h-287q-178 0 -304 126t-126 304zM129 430q0 -125 88 -213t213 -88h287q125 0 213 88t88 213v574q0 125 -88 213t-213 88h-287q-125 0 -213 -88.5t-88 -212.5v-574z M158 430v574q0 113 79.5 192.5t192.5 79.5h287q113 0 192.5 -80t79.5 -192v-574q0 -113 -80 -192.5t-192 -79.5h-287q-113 0 -192.5 79.5t-79.5 192.5zM176 1843h346l191 -287h-344zM287 430q0 -59 42 -101t101 -42h287q59 0 101 42t42 101v574q0 59 -42 101t-101 42h-287 q-59 0 -101 -42t-42 -101v-574zM418 1714l18 -28h35l-18 28h-35z" />
<glyph unicode="&#xd3;" d="M0 430v574q0 178 126 304t304 126h287q178 0 304 -126t126 -304v-574q0 -178 -126 -304t-304 -126h-287q-178 0 -304 126t-126 304zM129 430q0 -125 88 -213t213 -88h287q125 0 213 88t88 213v574q0 125 -88 213t-213 88h-287q-125 0 -213 -88.5t-88 -212.5v-574z M158 430v574q0 113 79.5 192.5t192.5 79.5h287q113 0 192.5 -80t79.5 -192v-574q0 -113 -80 -192.5t-192 -79.5h-287q-113 0 -192.5 79.5t-79.5 192.5zM287 430q0 -59 42 -101t101 -42h287q59 0 101 42t42 101v574q0 59 -42 101t-101 42h-287q-59 0 -101 -42t-42 -101v-574z M369 1556l190 287h346l-192 -287h-344zM610 1686h35l19 28h-35z" />
<glyph unicode="&#xd4;" d="M0 430v574q0 178 126 304t304 126h287q178 0 304 -126t126 -304v-574q0 -178 -126 -304t-304 -126h-287q-178 0 -304 126t-126 304zM106 1636l138 207h248l-138 -207h-248zM129 430q0 -125 88 -213t213 -88h287q125 0 213 88t88 213v574q0 125 -88 213t-213 88h-287 q-125 0 -213 -88.5t-88 -212.5v-574zM158 430v574q0 113 79.5 192.5t192.5 79.5h287q113 0 192.5 -80t79.5 -192v-574q0 -113 -80 -192.5t-192 -79.5h-287q-113 0 -192.5 79.5t-79.5 192.5zM274 1726h33l17 27h-31zM287 430q0 -59 42 -101t101 -42h287q59 0 101 42t42 101 v574q0 59 -42 101t-101 42h-287q-59 0 -101 -42t-42 -101v-574zM651 1843h248l137 -207h-248zM819 1753l19 -27h30l-16 27h-33z" />
<glyph unicode="&#xd5;" d="M0 430v574q0 178 126 304t304 126h287q178 0 304 -126t126 -304v-574q0 -178 -126 -304t-304 -126h-287q-178 0 -304 126t-126 304zM129 430q0 -125 88 -213t213 -88h287q125 0 213 88t88 213v574q0 125 -88 213t-213 88h-287q-125 0 -213 -88.5t-88 -212.5v-574z M145 1645v219q109 20 197 20q100 0 256 -35q2 0 5 -1t5 -1q119 -27 199 -26q92 0 197 24l2 -8v-211q-109 -20 -199 -20q-98 0 -256 34q-2 0 -5 1t-5 1q-119 27 -199 27q-93 1 -197 -24zM158 430v574q0 113 79.5 192.5t192.5 79.5h287q113 0 192.5 -80t79.5 -192v-574 q0 -113 -80 -192.5t-192 -79.5h-287q-113 0 -192.5 79.5t-79.5 192.5zM238 1755q49 8 104 8q90 0 229.5 -32.5t235.5 -32.5q57 0 104 8v29q-47 -8 -104 -9q-90 0 -229.5 33t-235.5 33q-55 0 -104 -8v-29zM287 430q0 -59 42 -101t101 -42h287q59 0 101 42t42 101v574 q0 59 -42 101t-101 42h-287q-59 0 -101 -42t-42 -101v-574z" />
<glyph unicode="&#xd6;" d="M0 430v574q0 178 126 304t304 126h287q178 0 304 -126t126 -304v-574q0 -178 -126 -304t-304 -126h-287q-178 0 -304 126t-126 304zM129 430q0 -125 88 -213t213 -88h287q125 0 213 88t88 213v574q0 125 -88 213t-213 88h-287q-125 0 -213 -88.5t-88 -212.5v-574z M158 430v574q0 113 79.5 192.5t192.5 79.5h287q113 0 192.5 -80t79.5 -192v-574q0 -113 -80 -192.5t-192 -79.5h-287q-113 0 -192.5 79.5t-79.5 192.5zM213 1699.5q0 59.5 42 101.5t101.5 42t101.5 -42t42 -101.5t-42 -101.5t-101.5 -42t-101.5 42t-42 101.5zM287 430 q0 -59 42 -101t101 -42h287q59 0 101 42t42 101v574q0 59 -42 101t-101 42h-287q-59 0 -101 -42t-42 -101v-574zM334 1700q0 -23 22 -23q20 0 21 23q0 20 -21 20q-22 0 -22 -20zM657 1699.5q0 59.5 42 101.5t101.5 42t101.5 -42t42 -101.5t-42 -101.5t-101.5 -42t-101.5 42 t-42 101.5zM778 1700q0 -23 23 -23q20 0 20 23q0 20 -20 20q-23 0 -23 -20z" />
<glyph unicode="&#xd7;" horiz-adv-x="1239" d="M0 354l360 363l-360 360l203 203l360 -360l361 360l202 -203l-360 -360l360 -363l-202 -202l-361 362l-360 -362zM182 354l21 -18l360 360l361 -360l20 18l-360 363l360 360l-20 21l-361 -361l-360 361l-21 -21l361 -360z" />
<glyph unicode="&#xd9;" horiz-adv-x="1476" d="M0 1147v287h573v-287h-143v-717q0 -59 42 -101t101 -42h201q59 0 101.5 42t42.5 101v717h-144v287h574v-287h-144v-717q0 -178 -126 -304t-304 -126h-201q-178 0 -304 126t-126 304v717h-143zM129 1276h143v-846q0 -125 88.5 -213t212.5 -88h201q125 0 213 88t88 213v846 h144v29h-316v-29h144v-846q0 -113 -80 -192.5t-193 -79.5h-201q-113 0 -192.5 79.5t-79.5 192.5v846h143v29h-315v-29zM279 1843h346l190 -287h-344zM520 1714l19 -28h34l-18 28h-35z" />
<glyph unicode="&#xda;" horiz-adv-x="1476" d="M0 1147v287h573v-287h-143v-717q0 -59 42 -101t101 -42h201q59 0 101.5 42t42.5 101v717h-144v287h574v-287h-144v-717q0 -178 -126 -304t-304 -126h-201q-178 0 -304 126t-126 304v717h-143zM129 1276h143v-846q0 -125 88.5 -213t212.5 -88h201q125 0 213 88t88 213v846 h144v29h-316v-29h144v-846q0 -113 -80 -192.5t-193 -79.5h-201q-113 0 -192.5 79.5t-79.5 192.5v846h143v29h-315v-29zM471 1556l191 287h346l-193 -287h-344zM713 1686h35l18 28h-35z" />
<glyph unicode="&#xdb;" horiz-adv-x="1476" d="M0 1147v287h573v-287h-143v-717q0 -59 42 -101t101 -42h201q59 0 101.5 42t42.5 101v717h-144v287h574v-287h-144v-717q0 -178 -126 -304t-304 -126h-201q-178 0 -304 126t-126 304v717h-143zM129 1276h143v-846q0 -125 88.5 -213t212.5 -88h201q125 0 213 88t88 213v846 h144v29h-316v-29h144v-846q0 -113 -80 -192.5t-193 -79.5h-201q-113 0 -192.5 79.5t-79.5 192.5v846h143v29h-315v-29zM211 1636l137 207h248l-137 -207h-248zM379 1726h33l16 27h-31zM756 1843h248l137 -207h-248zM924 1753l18 -27h31l-17 27h-32z" />
<glyph unicode="&#xdc;" horiz-adv-x="1476" d="M0 1147v287h573v-287h-143v-717q0 -59 42 -101t101 -42h201q59 0 101.5 42t42.5 101v717h-144v287h574v-287h-144v-717q0 -178 -126 -304t-304 -126h-201q-178 0 -304 126t-126 304v717h-143zM129 1276h143v-846q0 -125 88.5 -213t212.5 -88h201q125 0 213 88t88 213v846 h144v29h-316v-29h144v-846q0 -113 -80 -192.5t-193 -79.5h-201q-113 0 -192.5 79.5t-79.5 192.5v846h143v29h-315v-29zM317 1699.5q0 59.5 42 101.5t101.5 42t101.5 -42t42 -101.5t-42 -101.5t-101.5 -42t-101.5 42t-42 101.5zM438 1700q0 -23 23 -23q20 0 20 23 q0 20 -20 20q-23 0 -23 -20zM762 1699.5q0 59.5 42 101.5t101.5 42t101.5 -42t42 -101.5t-42 -101.5t-101.5 -42t-101.5 42t-42 101.5zM883 1700q0 -23 22 -23q20 0 21 23q0 20 -21 20q-22 0 -22 -20z" />
<glyph unicode="&#xdd;" horiz-adv-x="1464" d="M0 1147v287h573v-287h-108l201 -293l202 293h-108v287h573v-287h-116l-408 -590v-270h143v-287h-573v287h143v270l-405 590h-117zM129 1276h55l467 -678v-440h-143v-29h315v29h-143v440l469 678h55v29h-315v-29h225l-448 -649l-447 649h225v29h-315v-29zM465 1556 l190 287h346l-192 -287h-344zM707 1686h34l19 28h-35z" />
<glyph unicode="&#xe0;" horiz-adv-x="1531" d="M0 0v287h139l344 1147h439l344 -1147h139v-287h-574v287h136l-43 143h-443l-43 -143h135v-287h-573zM129 129h315v29h-180l121 401h635l121 -401h-180v-29h315v29h-107l-344 1147h-247l-345 -1147h-104v-29zM305 1843h346l191 -287h-344zM393 588l207 688h205l207 -688 h-619zM547 1714l18 -28h35l-18 28h-35zM567 717h271l-129 430h-13z" />
<glyph unicode="&#xe1;" horiz-adv-x="1531" d="M0 0v287h139l344 1147h439l344 -1147h139v-287h-574v287h136l-43 143h-443l-43 -143h135v-287h-573zM129 129h315v29h-180l121 401h635l121 -401h-180v-29h315v29h-107l-344 1147h-247l-345 -1147h-104v-29zM393 588l207 688h205l207 -688h-619zM498 1556l190 287h346 l-192 -287h-344zM567 717h271l-129 430h-13zM739 1686h35l19 28h-35z" />
<glyph unicode="&#xe2;" horiz-adv-x="1531" d="M0 0v287h139l344 1147h439l344 -1147h139v-287h-574v287h136l-43 143h-443l-43 -143h135v-287h-573zM129 129h315v29h-180l121 401h635l121 -401h-180v-29h315v29h-107l-344 1147h-247l-345 -1147h-104v-29zM301 1636l137 207h248l-137 -207h-248zM393 588l207 688h205 l207 -688h-619zM469 1726h33l16 27h-31zM567 717h271l-129 430h-13zM846 1843h248l137 -207h-248zM1014 1753l18 -27h31l-16 27h-33z" />
<glyph unicode="&#xe3;" horiz-adv-x="1531" d="M0 0v287h139l344 1147h439l344 -1147h139v-287h-574v287h136l-43 143h-443l-43 -143h135v-287h-573zM129 129h315v29h-180l121 401h635l121 -401h-180v-29h315v29h-107l-344 1147h-247l-345 -1147h-104v-29zM270 1645v219q109 20 197 20q98 0 256 -35q2 0 5 -1t5 -1 q119 -27 199 -26q92 0 196 24l2 -8v-211q-109 -20 -198 -20q-100 0 -256 34q-2 0 -5 1t-5 1q-119 27 -199 27q-93 1 -197 -24zM362 1755q49 8 105 8q90 0 229.5 -32.5t235.5 -32.5q57 0 104 8v29q-47 -8 -104 -9q-90 0 -229.5 33t-235.5 33q-55 0 -105 -8v-29zM393 588 l207 688h205l207 -688h-619zM567 717h271l-129 430h-13z" />
<glyph unicode="&#xe4;" horiz-adv-x="1531" d="M0 0v287h139l344 1147h439l344 -1147h139v-287h-574v287h136l-43 143h-443l-43 -143h135v-287h-573zM129 129h315v29h-180l121 401h635l121 -401h-180v-29h315v29h-107l-344 1147h-247l-345 -1147h-104v-29zM338 1699.5q0 59.5 42 101.5t101.5 42t101.5 -42t42 -101.5 t-42 -101.5t-101.5 -42t-101.5 42t-42 101.5zM393 588l207 688h205l207 -688h-619zM459 1700q0 -23 22 -23q20 0 21 23q0 20 -21 20q-22 0 -22 -20zM567 717h271l-129 430h-13zM782 1699.5q0 59.5 42 101.5t101.5 42t101.5 -42t42 -101.5t-42 -101.5t-101.5 -42t-101.5 42 t-42 101.5zM903 1700q0 -23 23 -23q20 0 20 23q0 20 -20 20q-23 0 -23 -20z" />
<glyph unicode="&#xe5;" horiz-adv-x="1531" d="M0 0v287h139l344 1147h439l344 -1147h139v-287h-574v287h136l-43 143h-443l-43 -143h135v-287h-573zM129 129h315v29h-180l121 401h635l121 -401h-180v-29h315v29h-107l-344 1147h-247l-345 -1147h-104v-29zM393 588l207 688h205l207 -688h-619zM492 1698q0 88 63 151.5 t151.5 63.5t152 -63.5t63.5 -151.5t-63.5 -151.5t-152 -63.5t-151.5 63.5t-63 151.5zM567 717h271l-129 430h-13zM635 1697.5q0 -28.5 21.5 -50t50 -21.5t50 21.5t21.5 50t-21.5 50t-50 21.5t-50 -21.5t-21.5 -50z" />
<glyph unicode="&#xe6;" horiz-adv-x="1863" d="M0 0v287h139l344 1147h1266v-430h-287v143h-286v-287h286v-287h-286v-286h286v143h287v-430h-1004v287h144v143h-408l-43 -143h135v-287h-573zM129 129h315v29h-180l121 401h633v-401h-144v-29h746v172h-29v-143h-544v544h286v29h-286v545h544v-143h29v172h-1042 l-345 -1147h-104v-29zM393 588l207 688h418v-688h-625zM567 717h322v430h-193z" />
<glyph unicode="&#xe7;" horiz-adv-x="1261" d="M0 430v574q0 178 126 304t304 126h287q178 0 304 -126t126 -304h-287q0 59 -42 101t-101 42h-287q-59 0 -101 -42t-42 -101v-574q0 -59 42 -101t101 -42h287q59 0 101 42t42 101h287q0 -178 -126 -304t-304 -126v-158h-287v158q-178 0 -304 126t-126 304zM129 430 q0 -125 88 -213t213 -88h129v-158h29v158h129q90 0 162.5 47t109.5 125h-33q-35 -66 -98 -104.5t-141 -38.5h-287q-113 0 -192.5 79.5t-79.5 192.5v574q0 113 79.5 192.5t192.5 79.5h287q78 0 141.5 -39t97.5 -104h33q-37 78 -109.5 125t-162.5 47h-287q-125 0 -213 -88.5 t-88 -212.5v-574z" />
<glyph unicode="&#xe8;" horiz-adv-x="1132" d="M0 0v287h143v860h-143v287h1004v-430h-287v143h-287v-287h287v-287h-287v-286h287v143h287v-430h-1004zM106 1843h347l190 -287h-344zM129 129h745v172h-28v-143h-545v544h287v29h-287v545h545v-143h28v172h-745v-29h143v-1118h-143v-29zM348 1714l19 -28h34l-18 28h-35z " />
<glyph unicode="&#xe9;" horiz-adv-x="1132" d="M0 0v287h143v860h-143v287h1004v-430h-287v143h-287v-287h287v-287h-287v-286h287v143h287v-430h-1004zM129 129h745v172h-28v-143h-545v544h287v29h-287v545h545v-143h28v172h-745v-29h143v-1118h-143v-29zM299 1556l190 287h347l-193 -287h-344zM541 1686h34l19 28h-35 z" />
<glyph unicode="&#xea;" horiz-adv-x="1132" d="M0 0v287h143v860h-143v287h1004v-430h-287v143h-287v-287h287v-287h-287v-286h287v143h287v-430h-1004zM74 1636l137 207h248l-137 -207h-248zM129 129h745v172h-28v-143h-545v544h287v29h-287v545h545v-143h28v172h-745v-29h143v-1118h-143v-29zM242 1726h32l17 27h-31z M618 1843h248l138 -207h-248zM786 1753l19 -27h31l-17 27h-33z" />
<glyph unicode="&#xeb;" horiz-adv-x="1132" d="M0 0v287h143v860h-143v287h1004v-430h-287v143h-287v-287h287v-287h-287v-286h287v143h287v-430h-1004zM129 129h745v172h-28v-143h-545v544h287v29h-287v545h545v-143h28v172h-745v-29h143v-1118h-143v-29zM129 1699.5q0 59.5 42 101.5t101.5 42t101.5 -42t42 -101.5 t-42 -101.5t-101.5 -42t-101.5 42t-42 101.5zM250 1700q0 -23 22 -23q20 0 21 23q0 20 -21 20q-22 0 -22 -20zM573 1699.5q0 59.5 42 101.5t101.5 42t101.5 -42t42 -101.5t-42 -101.5t-101.5 -42t-101.5 42t-42 101.5zM694 1700q0 -23 23 -23q20 0 20 23q0 20 -20 20 q-23 0 -23 -20z" />
<glyph unicode="&#xec;" horiz-adv-x="702" d="M-109 1843h347l190 -287h-344zM0 0v287h143v860h-143v287h573v-287h-143v-860h143v-287h-573zM129 129h315v29h-143v1118h143v29h-315v-29h143v-1118h-143v-29zM133 1714l19 -28h34l-18 28h-35z" />
<glyph unicode="&#xed;" horiz-adv-x="702" d="M0 0v287h143v860h-143v287h573v-287h-143v-860h143v-287h-573zM84 1556l190 287h347l-193 -287h-344zM129 129h315v29h-143v1118h143v29h-315v-29h143v-1118h-143v-29zM326 1686h34l19 28h-35z" />
<glyph unicode="&#xee;" horiz-adv-x="702" d="M-174 1636l137 207h248l-137 -207h-248zM-6 1726h33l16 27h-31zM0 0v287h143v860h-143v287h573v-287h-143v-860h143v-287h-573zM129 129h315v29h-143v1118h143v29h-315v-29h143v-1118h-143v-29zM371 1843h247l138 -207h-248zM539 1753l18 -27h31l-17 27h-32z" />
<glyph unicode="&#xef;" horiz-adv-x="702" d="M-74 1699.5q0 59.5 42 101.5t101.5 42t101.5 -42t42 -101.5t-42 -101.5t-101.5 -42t-101.5 42t-42 101.5zM0 0v287h143v860h-143v287h573v-287h-143v-860h143v-287h-573zM47 1700q0 -23 23 -23q20 0 20 23q0 20 -20 20q-23 0 -23 -20zM129 129h315v29h-143v1118h143v29 h-315v-29h143v-1118h-143v-29zM371 1699.5q0 59.5 42 101.5t101 42t101 -42t42 -101.5t-42 -101.5t-101 -42t-101 42t-42 101.5zM492 1700q0 -23 22 -23q20 0 21 23q0 20 -21 20q-22 0 -22 -20z" />
<glyph unicode="&#xf1;" horiz-adv-x="1548" d="M0 0v287h143v860h-143v287h430l559 -893v606h-143v287h573v-287h-143v-1147h-287l-559 893v-606h143v-287h-573zM129 129h315v29h-143v1118h41l719 -1147h86v1147h143v29h-315v-29h143v-1118h-41l-719 1147h-229v-29h143v-1118h-143v-29zM279 1645v219q109 20 196 20 q98 0 256 -35q2 0 5 -1t5 -1q119 -27 199 -26q92 0 197 24l2 -8v-211q-109 -20 -199 -20q-100 0 -256 34q-2 0 -5 1t-5 1q-119 27 -199 27q-92 1 -196 -24zM371 1755q49 8 104 8q90 0 229.5 -32.5t235.5 -32.5q57 0 104 8v29q-47 -8 -104 -9q-90 0 -229.5 33t-235.5 33 q-55 0 -104 -8v-29z" />
<glyph unicode="&#xf2;" d="M0 430v574q0 178 126 304t304 126h287q178 0 304 -126t126 -304v-574q0 -178 -126 -304t-304 -126h-287q-178 0 -304 126t-126 304zM129 430q0 -125 88 -213t213 -88h287q125 0 213 88t88 213v574q0 125 -88 213t-213 88h-287q-125 0 -213 -88.5t-88 -212.5v-574z M158 430v574q0 113 79.5 192.5t192.5 79.5h287q113 0 192.5 -80t79.5 -192v-574q0 -113 -80 -192.5t-192 -79.5h-287q-113 0 -192.5 79.5t-79.5 192.5zM176 1843h346l191 -287h-344zM287 430q0 -59 42 -101t101 -42h287q59 0 101 42t42 101v574q0 59 -42 101t-101 42h-287 q-59 0 -101 -42t-42 -101v-574zM418 1714l18 -28h35l-18 28h-35z" />
<glyph unicode="&#xf3;" d="M0 430v574q0 178 126 304t304 126h287q178 0 304 -126t126 -304v-574q0 -178 -126 -304t-304 -126h-287q-178 0 -304 126t-126 304zM129 430q0 -125 88 -213t213 -88h287q125 0 213 88t88 213v574q0 125 -88 213t-213 88h-287q-125 0 -213 -88.5t-88 -212.5v-574z M158 430v574q0 113 79.5 192.5t192.5 79.5h287q113 0 192.5 -80t79.5 -192v-574q0 -113 -80 -192.5t-192 -79.5h-287q-113 0 -192.5 79.5t-79.5 192.5zM287 430q0 -59 42 -101t101 -42h287q59 0 101 42t42 101v574q0 59 -42 101t-101 42h-287q-59 0 -101 -42t-42 -101v-574z M369 1556l190 287h346l-192 -287h-344zM610 1686h35l19 28h-35z" />
<glyph unicode="&#xf4;" d="M0 430v574q0 178 126 304t304 126h287q178 0 304 -126t126 -304v-574q0 -178 -126 -304t-304 -126h-287q-178 0 -304 126t-126 304zM106 1636l138 207h248l-138 -207h-248zM129 430q0 -125 88 -213t213 -88h287q125 0 213 88t88 213v574q0 125 -88 213t-213 88h-287 q-125 0 -213 -88.5t-88 -212.5v-574zM158 430v574q0 113 79.5 192.5t192.5 79.5h287q113 0 192.5 -80t79.5 -192v-574q0 -113 -80 -192.5t-192 -79.5h-287q-113 0 -192.5 79.5t-79.5 192.5zM274 1726h33l17 27h-31zM287 430q0 -59 42 -101t101 -42h287q59 0 101 42t42 101 v574q0 59 -42 101t-101 42h-287q-59 0 -101 -42t-42 -101v-574zM651 1843h248l137 -207h-248zM819 1753l19 -27h30l-16 27h-33z" />
<glyph unicode="&#xf5;" d="M0 430v574q0 178 126 304t304 126h287q178 0 304 -126t126 -304v-574q0 -178 -126 -304t-304 -126h-287q-178 0 -304 126t-126 304zM129 430q0 -125 88 -213t213 -88h287q125 0 213 88t88 213v574q0 125 -88 213t-213 88h-287q-125 0 -213 -88.5t-88 -212.5v-574z M145 1645v219q109 20 197 20q100 0 256 -35q2 0 5 -1t5 -1q119 -27 199 -26q92 0 197 24l2 -8v-211q-109 -20 -199 -20q-98 0 -256 34q-2 0 -5 1t-5 1q-119 27 -199 27q-93 1 -197 -24zM158 430v574q0 113 79.5 192.5t192.5 79.5h287q113 0 192.5 -80t79.5 -192v-574 q0 -113 -80 -192.5t-192 -79.5h-287q-113 0 -192.5 79.5t-79.5 192.5zM238 1755q49 8 104 8q90 0 229.5 -32.5t235.5 -32.5q57 0 104 8v29q-47 -8 -104 -9q-90 0 -229.5 33t-235.5 33q-55 0 -104 -8v-29zM287 430q0 -59 42 -101t101 -42h287q59 0 101 42t42 101v574 q0 59 -42 101t-101 42h-287q-59 0 -101 -42t-42 -101v-574z" />
<glyph unicode="&#xf6;" d="M0 430v574q0 178 126 304t304 126h287q178 0 304 -126t126 -304v-574q0 -178 -126 -304t-304 -126h-287q-178 0 -304 126t-126 304zM129 430q0 -125 88 -213t213 -88h287q125 0 213 88t88 213v574q0 125 -88 213t-213 88h-287q-125 0 -213 -88.5t-88 -212.5v-574z M158 430v574q0 113 79.5 192.5t192.5 79.5h287q113 0 192.5 -80t79.5 -192v-574q0 -113 -80 -192.5t-192 -79.5h-287q-113 0 -192.5 79.5t-79.5 192.5zM213 1699.5q0 59.5 42 101.5t101.5 42t101.5 -42t42 -101.5t-42 -101.5t-101.5 -42t-101.5 42t-42 101.5zM287 430 q0 -59 42 -101t101 -42h287q59 0 101 42t42 101v574q0 59 -42 101t-101 42h-287q-59 0 -101 -42t-42 -101v-574zM334 1700q0 -23 22 -23q20 0 21 23q0 20 -21 20q-22 0 -22 -20zM657 1699.5q0 59.5 42 101.5t101.5 42t101.5 -42t42 -101.5t-42 -101.5t-101.5 -42t-101.5 42 t-42 101.5zM778 1700q0 -23 23 -23q20 0 20 23q0 20 -20 20q-23 0 -23 -20z" />
<glyph unicode="&#xf7;" d="M0 573v287h1147v-287h-1147zM129 702h889v29h-889v-29zM430 143v287h287v-287h-287zM430 1004v286h287v-286h-287zM559 272h29v29h-29v-29zM559 1133h29v28h-29v-28z" />
<glyph unicode="&#xf9;" horiz-adv-x="1476" d="M0 1147v287h573v-287h-143v-717q0 -59 42 -101t101 -42h201q59 0 101.5 42t42.5 101v717h-144v287h574v-287h-144v-717q0 -178 -126 -304t-304 -126h-201q-178 0 -304 126t-126 304v717h-143zM129 1276h143v-846q0 -125 88.5 -213t212.5 -88h201q125 0 213 88t88 213v846 h144v29h-316v-29h144v-846q0 -113 -80 -192.5t-193 -79.5h-201q-113 0 -192.5 79.5t-79.5 192.5v846h143v29h-315v-29zM279 1843h346l190 -287h-344zM520 1714l19 -28h34l-18 28h-35z" />
<glyph unicode="&#xfa;" horiz-adv-x="1476" d="M0 1147v287h573v-287h-143v-717q0 -59 42 -101t101 -42h201q59 0 101.5 42t42.5 101v717h-144v287h574v-287h-144v-717q0 -178 -126 -304t-304 -126h-201q-178 0 -304 126t-126 304v717h-143zM129 1276h143v-846q0 -125 88.5 -213t212.5 -88h201q125 0 213 88t88 213v846 h144v29h-316v-29h144v-846q0 -113 -80 -192.5t-193 -79.5h-201q-113 0 -192.5 79.5t-79.5 192.5v846h143v29h-315v-29zM471 1556l191 287h346l-193 -287h-344zM713 1686h35l18 28h-35z" />
<glyph unicode="&#xfb;" horiz-adv-x="1476" d="M0 1147v287h573v-287h-143v-717q0 -59 42 -101t101 -42h201q59 0 101.5 42t42.5 101v717h-144v287h574v-287h-144v-717q0 -178 -126 -304t-304 -126h-201q-178 0 -304 126t-126 304v717h-143zM129 1276h143v-846q0 -125 88.5 -213t212.5 -88h201q125 0 213 88t88 213v846 h144v29h-316v-29h144v-846q0 -113 -80 -192.5t-193 -79.5h-201q-113 0 -192.5 79.5t-79.5 192.5v846h143v29h-315v-29zM211 1636l137 207h248l-137 -207h-248zM379 1726h33l16 27h-31zM756 1843h248l137 -207h-248zM924 1753l18 -27h31l-17 27h-32z" />
<glyph unicode="&#xfc;" horiz-adv-x="1476" d="M0 1147v287h573v-287h-143v-717q0 -59 42 -101t101 -42h201q59 0 101.5 42t42.5 101v717h-144v287h574v-287h-144v-717q0 -178 -126 -304t-304 -126h-201q-178 0 -304 126t-126 304v717h-143zM129 1276h143v-846q0 -125 88.5 -213t212.5 -88h201q125 0 213 88t88 213v846 h144v29h-316v-29h144v-846q0 -113 -80 -192.5t-193 -79.5h-201q-113 0 -192.5 79.5t-79.5 192.5v846h143v29h-315v-29zM317 1699.5q0 59.5 42 101.5t101.5 42t101.5 -42t42 -101.5t-42 -101.5t-101.5 -42t-101.5 42t-42 101.5zM438 1700q0 -23 23 -23q20 0 20 23 q0 20 -20 20q-23 0 -23 -20zM762 1699.5q0 59.5 42 101.5t101.5 42t101.5 -42t42 -101.5t-42 -101.5t-101.5 -42t-101.5 42t-42 101.5zM883 1700q0 -23 22 -23q20 0 21 23q0 20 -21 20q-22 0 -22 -20z" />
<glyph unicode="&#xfd;" horiz-adv-x="1464" d="M0 1147v287h573v-287h-108l201 -293l202 293h-108v287h573v-287h-116l-408 -590v-270h143v-287h-573v287h143v270l-405 590h-117zM129 1276h55l467 -678v-440h-143v-29h315v29h-143v440l469 678h55v29h-315v-29h225l-448 -649l-447 649h225v29h-315v-29zM465 1556 l190 287h346l-192 -287h-344zM707 1686h34l19 28h-35z" />
<glyph unicode="&#xff;" horiz-adv-x="1464" d="M0 1147v287h573v-287h-108l201 -293l202 293h-108v287h573v-287h-116l-408 -590v-270h143v-287h-573v287h143v270l-405 590h-117zM129 1276h55l467 -678v-440h-143v-29h315v29h-143v440l469 678h55v29h-315v-29h225l-448 -649l-447 649h225v29h-315v-29zM299 1699.5 q0 59.5 42 101.5t101.5 42t101.5 -42t42 -101.5t-42 -101.5t-101.5 -42t-101.5 42t-42 101.5zM420 1700q0 -23 22 -23q20 0 21 23q0 20 -21 20q-22 0 -22 -20zM743 1699.5q0 59.5 42 101.5t101.5 42t101.5 -42t42 -101.5t-42 -101.5t-101.5 -42t-101.5 42t-42 101.5z M864 1700q0 -23 23 -23q20 0 20 23q0 20 -20 20q-23 0 -23 -20z" />
<glyph unicode="&#x152;" horiz-adv-x="1705" d="M0 430v574q0 178 126 304t304 126h1147v-430h-287v143h-286v-287h286v-287h-286v-286h286v143h287v-430h-1147q-178 0 -304 126t-126 304zM129 430q0 -125 88 -213t213 -88h1018v172h-29v-143h-545v544h287v29h-287v545h545v-143h29v172h-1018q-125 0 -213 -88.5 t-88 -212.5v-574zM158 430v574q0 113 79.5 192.5t192.5 79.5h416v-1118h-416q-113 0 -192.5 79.5t-79.5 192.5zM287 430q0 -59 42 -101t101 -42h287v860h-287q-59 0 -101 -42t-42 -101v-574z" />
<glyph unicode="&#x153;" horiz-adv-x="1705" d="M0 430v574q0 178 126 304t304 126h1147v-430h-287v143h-286v-287h286v-287h-286v-286h286v143h287v-430h-1147q-178 0 -304 126t-126 304zM129 430q0 -125 88 -213t213 -88h1018v172h-29v-143h-545v544h287v29h-287v545h545v-143h29v172h-1018q-125 0 -213 -88.5 t-88 -212.5v-574zM158 430v574q0 113 79.5 192.5t192.5 79.5h416v-1118h-416q-113 0 -192.5 79.5t-79.5 192.5zM287 430q0 -59 42 -101t101 -42h287v860h-287q-59 0 -101 -42t-42 -101v-574z" />
<glyph unicode="&#x178;" horiz-adv-x="1464" d="M0 1147v287h573v-287h-108l201 -293l202 293h-108v287h573v-287h-116l-408 -590v-270h143v-287h-573v287h143v270l-405 590h-117zM129 1276h55l467 -678v-440h-143v-29h315v29h-143v440l469 678h55v29h-315v-29h225l-448 -649l-447 649h225v29h-315v-29zM299 1699.5 q0 59.5 42 101.5t101.5 42t101.5 -42t42 -101.5t-42 -101.5t-101.5 -42t-101.5 42t-42 101.5zM420 1700q0 -23 22 -23q20 0 21 23q0 20 -21 20q-22 0 -22 -20zM743 1699.5q0 59.5 42 101.5t101.5 42t101.5 -42t42 -101.5t-42 -101.5t-101.5 -42t-101.5 42t-42 101.5z M864 1700q0 -23 23 -23q20 0 20 23q0 20 -20 20q-23 0 -23 -20z" />
<glyph unicode="&#x2c6;" horiz-adv-x="944" d="M-102 1227l137 207h248l-138 -207h-247zM66 1317h32l17 26h-31zM442 1434h248l137 -207h-247zM610 1343l19 -26h30l-16 26h-33z" />
<glyph unicode="&#x2dc;" horiz-adv-x="989" d="M0 1235v219q109 20 197 21q98 0 256 -35q2 0 5 -1t5 -1q119 -27 199 -27q92 0 196 25l2 -9v-210q-109 -20 -198 -21q-100 0 -256 35q-2 0 -5.5 1t-5.5 1q-119 27 -198 27q-93 0 -197 -25zM92 1346q49 8 105 8q90 0 229 -33t236 -33q57 0 104 8v29q-47 -8 -104 -8 q-90 0 -229.5 32.5t-235.5 32.5q-55 0 -105 -8v-28z" />
<glyph unicode="&#x2000;" horiz-adv-x="956" />
<glyph unicode="&#x2001;" horiz-adv-x="1912" />
<glyph unicode="&#x2002;" horiz-adv-x="956" />
<glyph unicode="&#x2003;" horiz-adv-x="1912" />
<glyph unicode="&#x2004;" horiz-adv-x="636" />
<glyph unicode="&#x2005;" horiz-adv-x="477" />
<glyph unicode="&#x2006;" horiz-adv-x="317" />
<glyph unicode="&#x2007;" horiz-adv-x="317" />
<glyph unicode="&#x2008;" horiz-adv-x="237" />
<glyph unicode="&#x2009;" horiz-adv-x="380" />
<glyph unicode="&#x200a;" horiz-adv-x="104" />
<glyph unicode="&#x2010;" horiz-adv-x="989" d="M0 573v287h860v-287h-860zM129 702h602v29h-602v-29z" />
<glyph unicode="&#x2011;" horiz-adv-x="989" d="M0 573v287h860v-287h-860zM129 702h602v29h-602v-29z" />
<glyph unicode="&#x2012;" horiz-adv-x="989" d="M0 573v287h860v-287h-860zM129 702h602v29h-602v-29z" />
<glyph unicode="&#x2013;" d="M0 573v287h1147v-287h-1147zM129 702h889v29h-889v-29z" />
<glyph unicode="&#x2014;" horiz-adv-x="1560" d="M0 573v287h1434v-287h-1434zM129 702h1176v29h-1176v-29z" />
<glyph unicode="&#x2018;" horiz-adv-x="559" d="M0 1591h303l143 -430h-303zM178 1462l58 -172h30l-57 172h-31z" />
<glyph unicode="&#x2019;" horiz-adv-x="561" d="M0 1161l143 430h303l-143 -430h-303zM178 1290h31l57 172h-30z" />
<glyph unicode="&#x201a;" horiz-adv-x="563" d="M0 -143l143 430h303l-143 -430h-303zM178 -14h31l57 172h-30z" />
<glyph unicode="&#x201c;" horiz-adv-x="1003" d="M0 1591h303l143 -430h-303zM178 1462l58 -172h30l-57 172h-31zM444 1591h304l143 -430h-303zM623 1462l57 -172h31l-58 172h-30z" />
<glyph unicode="&#x201d;" horiz-adv-x="1003" d="M0 1161l143 430h303l-143 -430h-303zM178 1290h31l57 172h-30zM444 1161l144 430h303l-143 -430h-304zM623 1290h30l58 172h-31z" />
<glyph unicode="&#x201e;" horiz-adv-x="1003" d="M0 -143l143 430h303l-143 -430h-303zM178 -14h31l57 172h-30zM444 -143l144 430h303l-143 -430h-304zM623 -14h30l58 172h-31z" />
<glyph unicode="&#x2022;" horiz-adv-x="749" d="M0 731q0 129 92 221t221 92q131 0 223.5 -92t92.5 -221q0 -131 -92.5 -223t-223.5 -92q-129 0 -221 92t-92 223z" />
<glyph unicode="&#x2026;" horiz-adv-x="1376" d="M0 172q0 70 51 121t121 51t121 -51t51 -121t-51 -121t-121 -51t-121 51t-51 121zM150 172q0 -23 22 -22q20 0 21 22q0 20 -21 21q-22 -1 -22 -21zM459 172q0 70 51 121t120.5 51t121 -51t51.5 -121t-51.5 -121t-121 -51t-120.5 51t-51 121zM608 172q0 -23 23 -22 q20 0 20 22q0 20 -20 21q-23 -1 -23 -21zM918 172q0 70 51 121t120.5 51t121 -51t51.5 -121t-51.5 -121t-121 -51t-120.5 51t-51 121zM1067 172q0 -23 23 -22q20 0 20 22q0 20 -20 21q-23 -1 -23 -21z" />
<glyph unicode="&#x202f;" horiz-adv-x="380" />
<glyph unicode="&#x2039;" horiz-adv-x="819" d="M0 705l705 704v-405l-299 -299l299 -299v-406zM182 705l393 -394v41l-352 353l352 352v41z" />
<glyph unicode="&#x203a;" horiz-adv-x="819" d="M0 0v406l299 299l-299 299v405l705 -704zM129 311l393 394l-393 393v-41l352 -352l-352 -353v-41z" />
<glyph unicode="&#x205f;" horiz-adv-x="477" />
<glyph unicode="&#x20ac;" horiz-adv-x="1402" d="M0 430v215h143v143h-143v216h143q0 178 126 304t304 126h287q178 0 304 -126t126 -304h-286q0 59 -42 101t-102 42h-287q-59 0 -101 -42t-42 -101h430v-216h-430v-143h430v-215h-430q0 -59 42 -101t101 -42h287q59 0 101.5 42t42.5 101h286q0 -178 -126 -304t-304 -126 h-287q-178 0 -304 126t-126 304h-143zM143 522h129v-92q0 -125 88.5 -213t212.5 -88h287q88 0 162 47t111 125h-33q-35 -66 -98.5 -104.5t-141.5 -38.5h-287q-113 0 -192.5 79.5t-79.5 192.5v92h430v29h-430v330h430v28h-430v95q0 113 80 192.5t192 79.5h287q78 0 141.5 -39 t98.5 -104h33q-37 78 -111 125t-162 47h-287q-125 0 -213 -88.5t-88 -212.5v-95h-129v-28h129v-330h-129v-29z" />
<glyph unicode="&#x2122;" horiz-adv-x="716" d="M0 1231v92h246v-92h-62v31h-30v-185h30v-61h-123v61h31v185h-31v-31h-61zM276 1016v61h31v185h-31v61h93l61 -96l59 96h95v-61h-31v-185h31v-61h-123v61h31v133l-62 -98l-61 98v-133h30v-61h-123z" />
<glyph unicode="&#xe000;" horiz-adv-x="1435" d="M0 1435h1435v-1435h-1435v1435z" />
<glyph unicode="&#xfb01;" horiz-adv-x="1835" d="M1133 0v287h143v860h-143v287h573v-287h-143v-860h143v-287h-573zM1262 129h315v29h-143v1118h143v29h-315v-29h143v-1118h-143v-29zM0 0v287h143v860h-143v287h1004v-430h-287v143h-287v-287h287v-287h-287v-286h143v-287h-573zM129 129h315v29h-143v544h287v29h-287 v545h545v-143h28v172h-745v-29h143v-1118h-143v-29z" />
<glyph unicode="&#xfb02;" horiz-adv-x="2265" d="M1133 0v287h143v860h-143v287h573v-287h-143v-860h287v143h287v-430h-1004zM1262 129h745v172h-28v-143h-545v1118h143v29h-315v-29h143v-1118h-143v-29zM0 0v287h143v860h-143v287h1004v-430h-287v143h-287v-287h287v-287h-287v-286h143v-287h-573zM129 129h315v29h-143 v544h287v29h-287v545h545v-143h28v172h-745v-29h143v-1118h-143v-29z" />
<glyph unicode="&#xfb03;" horiz-adv-x="2967" d="M2265 0v287h143v860h-143v287h573v-287h-143v-860h143v-287h-573zM2394 129h315v29h-143v1118h143v29h-315v-29h143v-1118h-143v-29zM1133 0v287h143v860h-143v287h1004v-430h-287v143h-287v-287h287v-287h-287v-286h143v-287h-573zM1262 129h315v29h-143v544h287v29 h-287v545h545v-143h28v172h-745v-29h143v-1118h-143v-29zM0 0v287h143v860h-143v287h1004v-430h-287v143h-287v-287h287v-287h-287v-286h143v-287h-573zM129 129h315v29h-143v544h287v29h-287v545h545v-143h28v172h-745v-29h143v-1118h-143v-29z" />
<glyph unicode="&#xfb04;" horiz-adv-x="3397" d="M2265 0v287h143v860h-143v287h573v-287h-143v-860h287v143h287v-430h-1004zM2394 129h745v172h-28v-143h-545v1118h143v29h-315v-29h143v-1118h-143v-29zM1133 0v287h143v860h-143v287h1004v-430h-287v143h-287v-287h287v-287h-287v-286h143v-287h-573zM1262 129h315v29 h-143v544h287v29h-287v545h545v-143h28v172h-745v-29h143v-1118h-143v-29zM0 0v287h143v860h-143v287h1004v-430h-287v143h-287v-287h287v-287h-287v-286h143v-287h-573zM129 129h315v29h-143v544h287v29h-287v545h545v-143h28v172h-745v-29h143v-1118h-143v-29z" />
<glyph horiz-adv-x="702" />
</font>
</defs>
</svg>
